<?xml version="1.0" standalone="no"?>
<!DOCTYPE svg PUBLIC "-//W3C//DTD SVG 1.1//EN" "http://www.w3.org/Graphics/SVG/1.1/DTD/svg11.dtd" >
<svg xmlns="http://www.w3.org/2000/svg">
<metadata>Generated by IcoMoon</metadata>
<defs>
<font id="icons" horiz-adv-x="1024">
<font-face units-per-em="1024" ascent="960" descent="-64" />
<missing-glyph horiz-adv-x="1024" />
<glyph unicode="&#x20;" horiz-adv-x="512" d="" />
<glyph unicode="&#x21;" glyph-name="messenger" horiz-adv-x="1269" d="M389.065 960c93.947 0 137.993-45.385 158.64-99.751-51.454-74.565-52.53-174.352-52.53-238.832 0-22.64 3.806-50.846 11.362-81.515-28.878-42.976-68.139-74.992-117.472-74.992-116.496 0-176.848 178.549-176.848 258.309s2.107 236.782 176.848 236.782zM260.921 474.825c0 0 16.018-55.195 128.144-55.195 112.128 0 128.144 55.195 128.144 55.195l12.103-5.438c35.051-87.582 96.88-176.464 184.464-206.594-95.038 17.054-110.389 69.79-110.389 69.79s-196.585-87.115-262.114-130.667c-7.111-4.727-13.785-11.586-20.027-20.046h-321.246c0 0 20.649 164.809 68.704 196.846 48.055 32.039 192.217 96.11 192.217 96.11zM778.13 924.631c244.64 0 247.589-202.078 247.589-304.722 0-102.647-84.498-332.427-247.589-332.427-163.093 0-247.586 229.781-247.586 332.427 0 102.645 2.949 304.722 247.586 304.722zM615.038 307.136c0 0 20.386-70.245 163.093-70.245 142.709 0 163.090 70.245 163.090 70.245s183.481-81.543 244.64-122.318c71.97-47.977 87.445-250.537 87.445-250.537h-990.35c0 0 26.283 209.762 87.442 250.537 61.161 40.775 244.64 122.318 244.64 122.318z" />
<glyph unicode="&#x22;" glyph-name="help-circle" d="M875.282 809.826c200.231-200.233 200.231-524.875 0-725.109-200.233-200.231-524.875-200.231-725.109 0-200.231 200.233-200.231 524.875 0 725.109 200.233 200.231 524.875 200.231 725.109 0zM512.727 275.509c38.178 0 64.091 27.182 64.091 64.949 0 46.354 19.765 58.24 59.173 80.832 41.794 23.952 133.097 70.898 133.097 175.529 0 68.725-71.337 170.907-242.537 170.907-171.202 0-248.823-102.183-248.823-170.907 0-37.762 25.913-64.091 64.089-64.091 38.165 0 85.454 26.334 85.454 64.091 2.053 14.834 30.162 64.089 85.456 64.089 71.925 0 106.816-23.072 106.816-64.089 0-23.659-24.873-62.969-64.089-85.456-46.021-26.359-106.818-45.746-106.818-170.905 0-37.767 25.915-64.949 64.091-64.949zM619.509 158.791c0 41.248-43.035 74.699-96.101 74.699-53.061 0-96.096-33.451-96.096-74.699 0-41.264 43.035-74.702 96.096-74.702 53.065 0 96.101 33.438 96.101 74.702z" />
<glyph unicode="&#x23;" glyph-name="id" horiz-adv-x="1538" d="M96.549 960h1351.659c53.319 0 96.544-43.225 96.544-96.549v-836.736c0-53.326-43.225-96.553-96.544-96.553h-1351.659c-53.323 0-96.549 43.227-96.549 96.553v836.736c0 53.323 43.225 96.549 96.549 96.549zM195.479 831.271c-36.864 0-66.75-28.818-66.75-64.366v-514.917c0-35.55 29.886-64.363 66.75-64.363h19.072c0 118.491 96.055 214.546 214.546 214.546 118.494 0 214.549-96.055 214.549-214.546h19.072c36.864 0 66.747 28.814 66.747 64.363v514.917c0 35.547-29.883 64.366-66.747 64.366h-467.239zM429.097 788.359c94.795 0 171.641-76.846 171.641-171.637-0.002-94.793-76.846-171.641-171.641-171.641-94.793 0-171.639 76.848-171.639 171.641 0 94.791 76.846 171.637 171.639 171.637zM858.197 616.722v-85.819h557.829v85.819h-557.829zM858.197 359.262v-85.817h557.829v85.817h-557.829z" />
<glyph unicode="&#x24;" glyph-name="stamp" d="M164.944 251.166h706.455c19.511 0 35.323-16.311 35.323-36.427v-145.705c0-20.121-15.813-36.43-35.323-36.43h-37.531v-24.283h-631.392v24.283h-37.531c-19.509 0-35.321 16.309-35.321 36.43v145.705c0 20.117 15.813 36.427 35.321 36.427zM416.297 275.449c0 0 29.106 71.424 29.106 124.992 0 124.994-97.024 214.274-97.024 321.413s0 160.706 169.794 160.706c169.79 0 169.79-53.568 169.79-160.706s-97.024-196.418-97.024-321.413c0-71.424 29.109-124.992 29.109-124.992h-203.751zM429.865 178.311l88.309-91.067 88.306 91.067h-176.615z" />
<glyph unicode="&#x25;" glyph-name="trash2" horiz-adv-x="928" d="M874.695 688.229l-60.325-663.559c0-51.799-28.985-90.487-80.75-90.487h-532.222c-51.767 0-80.752 38.688-80.752 90.487l-60.322 663.559h814.37zM60.325 869.198h241.397v47.685c0 23.815 20.245 43.118 45.216 43.118h241.141c24.971 0 45.214-19.303 45.214-43.118v-47.685h241.403c25.879 0 60.322-34.425 60.322-60.325v-90.485h-935.017v90.485c0 25.899 34.439 60.325 60.325 60.325zM467.509 597.742c-24.987 0-45.243-20.256-45.243-45.243v-452.427c0-24.987 20.256-45.241 45.243-45.241s45.241 20.254 45.241 45.241l0.002 452.43c0 24.985-20.256 45.241-45.243 45.241zM256.375 597.742c-24.985 0-45.241-20.256-45.241-45.241v-452.43c0-24.987 20.256-45.241 45.241-45.241 24.987 0 45.243 20.254 45.243 45.241v452.43c0 24.985-20.256 45.241-45.243 45.241zM678.638 597.742c-24.983 0-45.241-20.256-45.241-45.241v-452.43c0-24.987 20.258-45.241 45.241-45.241 24.99 0 45.248 20.254 45.248 45.241v452.43c0 24.985-20.258 45.241-45.248 45.241z" />
<glyph unicode="&#x26;" glyph-name="printer" d="M796.521 960v-295.854c141.648-18.402 227.577-53.232 227.577-85.813v-400.631c0-21.335-21.337-42.67-42.672-42.67h-184.905v-199.131h-568.944v199.131h-184.907c-21.335 0-42.67 21.335-42.67 42.67v400.631c0 32.581 85.927 67.41 227.577 85.813v295.854h568.944zM739.625 903.104h-455.154v-232.757c49.57 4.437 104.421 6.958 163.57 6.958h128.014c59.15 0 114-2.521 163.57-6.958v232.757zM227.575 248.825v-28.45h56.896v-227.582l142.235 0.007c0 31.419 38.21 56.891 85.342 56.891s85.344-25.472 85.344-56.891l142.233-0.007v227.582h56.896v28.45h-568.946z" />
<glyph unicode="&#x27;" glyph-name="more" d="M57.799 447.993c0-72.462 58.742-131.205 131.205-131.205s131.205 58.742 131.205 131.205c0 72.462-58.742 131.205-131.205 131.205s-131.205-58.742-131.205-131.205zM384.731 447.993c0-72.463 58.743-131.206 131.206-131.206s131.206 58.743 131.206 131.206c0 72.463-58.743 131.206-131.206 131.206s-131.206-58.743-131.206-131.206zM711.671 447.993c0-72.462 58.742-131.205 131.205-131.205s131.205 58.742 131.205 131.205c0 72.462-58.742 131.205-131.205 131.205s-131.205-58.742-131.205-131.205z" />
<glyph unicode="&#x28;" glyph-name="add" horiz-adv-x="1077" d="M388.322 960h306.798v-381.886h386.176v-266.034h-386.176v-381.883h-306.798v381.883h-388.322v266.034h388.322v381.886z" />
<glyph unicode="&#x29;" glyph-name="wrench2" d="M227.881 960c125.856 0 227.881-102.025 227.881-227.881 0-10.345-0.688-20.53-2.025-30.51l2.025 2.025c0 0-21.255-64.201 28.485-113.943l170.91-170.91c48.624-48.624 113.943-28.485 113.943-28.485l-2.023-2.027c9.975 1.337 20.165 2.025 30.507 2.025 125.854 0 227.879-102.027 227.879-227.879 0-26.034-4.366-51.047-12.405-74.35l-159.92 159.92-111.307-29.817-29.822-111.307 159.925-159.925c-23.303-8.041-48.315-12.405-74.35-12.405-125.858 0-227.883 102.023-227.883 227.883 0 10.343 0.69 20.526 2.025 30.507l-2.023-2.023c0 0 18.745 66.711-28.485 113.938l-170.912 170.914c-51.73 51.73-113.941 28.482-113.941 28.485l2.025 2.025c-9.982-1.337-20.165-2.027-30.512-2.027-125.854 0-227.879 102.027-227.879 227.883 0 26.032 4.366 51.047 12.407 74.352l159.922-159.925 111.303 29.822 29.822 111.303-159.925 159.922c23.303 8.041 48.318 12.407 74.352 12.407z" />
<glyph unicode="&#x2a;" glyph-name="benchmarking" horiz-adv-x="1045" d="M422.354 960h582.407c24.128 0 43.689-19.182 43.689-42.846v-42.846h-669.781v42.846c0 23.664 19.559 42.846 43.685 42.846zM1048.45 231.621c0-23.662-19.561-42.848-43.689-42.848h-276.546v85.694h320.235v-42.846zM378.67 845.742h669.781v-542.711h-320.235v120.601l72.818 47.609 126.222-82.519-42.078 144.405 105.193 82.519h-141.129l-48.208 144.407-48.208-144.407h-24.61v58.713c0 47.328-39.127 85.694-87.387 85.694h-262.158v85.689zM43.685 702.923h582.411c24.126 0 43.68-19.182 43.68-42.846v-42.846h-669.776v42.846c0 23.664 19.559 42.846 43.685 42.846zM669.776-25.456c0-23.662-19.554-42.848-43.68-42.848h-582.411c-24.126 0-43.685 19.186-43.685 42.848v42.846h669.776v-42.846zM0 588.667h669.776v-542.713h-669.776v542.713z" />
<glyph unicode="&#x2b;" glyph-name="layers-alt" horiz-adv-x="1022" d="M0 192l512.032-128 511.968 128v-128l-511.968-128-512.032 128zM0 448l512.032-128 511.968 128v-128l-511.968-128-512.032 128zM0 704l512.032-128 511.968 128v-128l-511.968-128-512.032 128zM0 960l512.032-128 511.968 128v-128l-511.968-128-512.032 128z" />
<glyph unicode="&#x2c;" glyph-name="lines" d="M224 640h576c17.666 0 32 14.334 32 32s-14.334 32-32 32h-576c-17.666 0-32-14.334-32-32s14.334-32 32-32zM800 576h-576c-17.666 0-32-14.334-32-32s14.334-32 32-32h576c17.666 0 32 14.334 32 32s-14.334 32-32 32zM800 448h-576c-17.666 0-32-14.334-32-32s14.334-32 32-32h576c17.666 0 32 14.334 32 32s-14.334 32-32 32zM800 320h-576c-17.666 0-32-14.334-32-32s14.334-32 32-32h576c17.666 0 32 14.334 32 32s-14.334 32-32 32z" />
<glyph unicode="&#x2d;" glyph-name="grid" d="M224 576h-192c-17.696 0-32-14.304-32-32v-192c0-17.696 14.304-32 32-32h192c17.696 0 32 14.304 32 32v192c0 17.696-14.304 32-32 32zM192 416c0-17.696-14.304-32-32-32h-64c-17.696 0-32 14.304-32 32v64c0 17.696 14.304 32 32 32h64c17.696 0 32-14.304 32-32v-64zM224 960h-192c-17.696 0-32-14.304-32-32v-192c0-17.696 14.304-32 32-32h192c17.696 0 32 46.304 32 64v160c0 17.696-14.304 32-32 32zM192 800c0-17.696-14.304-32-32-32h-64c-17.696 0-32 14.304-32 32v64c0 17.696 14.304 32 32 32h64c17.696 0 32-14.304 32-32v-64zM224 192h-192c-17.696 0-32-14.304-32-32v-192c0-17.696 14.304-32 32-32h192c17.696 0 32 14.304 32 32v192c0 17.696-14.304 32-32 32zM192 32c0-17.696-14.304-32-32-32h-64c-17.696 0-32 14.304-32 32v64c0 17.696 14.304 32 32 32h64c17.696 0 32-14.304 32-32v-64zM608 576h-192c-17.696 0-32-14.304-32-32v-192c0-17.696 14.304-32 32-32h192c17.696 0 32 14.304 32 32v192c0 17.696-14.304 32-32 32zM576 416c0-17.696-14.304-32-32-32h-64c-17.696 0-32 14.304-32 32v64c0 17.696 14.304 32 32 32h64c17.696 0 32-14.304 32-32v-64zM608 192h-192c-17.696 0-32-14.304-32-32v-192c0-17.696 14.304-32 32-32h192c17.696 0 32 14.304 32 32v192c0 17.696-14.304 32-32 32zM576 32c0-17.696-14.304-32-32-32h-64c-17.696 0-32 14.304-32 32v64c0 17.696 14.304 32 32 32h64c17.696 0 32-14.304 32-32v-64zM992 576h-192c-17.696 0-32-14.304-32-32v-192c0-17.696 14.304-32 32-32h192c17.696 0 32 14.304 32 32v192c0 17.696-14.304 32-32 32zM960 416c0-17.696-14.304-32-32-32h-64c-17.696 0-32 14.304-32 32v64c0 17.696 14.304 32 32 32h64c17.696 0 32-14.304 32-32v-64zM992 960h-192c-17.696 0-32-14.304-32-32v-192c0-17.696 14.304-32 32-32h192c17.696 0 32 46.304 32 64v160c0 17.696-14.304 32-32 32zM960 800c0-17.696-14.304-32-32-32h-64c-17.696 0-32 14.304-32 32v64c0 17.696 14.304 32 32 32h64c17.696 0 32-14.304 32-32v-64zM608 960h-192c-17.696 0-32-14.304-32-32v-192c0-17.696 14.304-32 32-32h192c17.696 0 32 46.304 32 64v160c0 17.696-14.304 32-32 32zM576 800c0-17.696-14.304-32-32-32h-64c-17.696 0-32 14.304-32 32v64c0 17.696 14.304 32 32 32h64c17.696 0 32-14.304 32-32v-64zM992 192h-192c-17.696 0-32-14.304-32-32v-192c0-17.696 14.304-32 32-32h192c17.696 0 32 14.304 32 32v192c0 17.696-14.304 32-32 32zM960 32c0-17.696-14.304-32-32-32h-64c-17.696 0-32 14.304-32 32v64c0 17.696 14.304 32 32 32h64c17.696 0 32-14.304 32-32v-64z" />
<glyph unicode="&#x2e;" glyph-name="trash-ring" d="M512 960c282.768 0 512-229.23 512-512 0-282.768-229.232-512-512-512-282.77 0-512 229.232-512 512 0 282.77 229.23 512 512 512zM511.36 908.8c-254.139 0-460.16-206.021-460.16-460.16 0-254.142 206.021-460.16 460.16-460.16 254.142 0 460.16 206.018 460.16 460.16 0 254.139-206.018 460.16-460.16 460.16zM714.752 604.672l-32.768-360.448c0-28.135-15.744-49.152-43.863-49.152h-289.104c-28.121 0-43.865 21.017-43.865 49.152l-32.768 360.448h442.368zM272.384 702.976h131.127v25.902c0 12.937 10.999 23.422 24.562 23.422h130.99c13.563 0 24.562-10.485 24.562-23.422v-25.902h131.127c14.059 0 32.768-18.699 32.768-32.768v-49.152h-507.904v49.152c0 14.069 18.709 32.768 32.768 32.768zM493.568 555.52c-13.575 0-24.576-11.003-24.576-24.576v-245.76c0-13.575 11.001-24.576 24.576-24.576 13.573 0 24.576 11.001 24.576 24.576v245.76c0 13.573-11.003 24.576-24.576 24.576zM378.88 555.52c-13.575 0-24.576-11.003-24.576-24.576v-245.76c0-13.575 11.001-24.576 24.576-24.576 13.573 0 24.576 11.001 24.576 24.576v245.76c0 13.573-11.003 24.576-24.576 24.576zM608.256 555.52c-13.575 0-24.576-11.001-24.576-24.576v-245.76c0-13.575 11.001-24.576 24.576-24.576s24.576 11.001 24.576 24.576v245.76c0 13.575-11.001 24.576-24.576 24.576z" />
<glyph unicode="&#x2f;" glyph-name="id-ring" d="M512 960c282.768 0 512-229.23 512-512 0-282.768-229.232-512-512-512-282.77 0-512 229.232-512 512 0 282.77 229.23 512 512 512zM511.36 908.8c-254.139 0-460.16-206.021-460.16-460.16 0-254.142 206.021-460.16 460.16-460.16 254.142 0 460.16 206.018 460.16 460.16 0 254.139-206.018 460.16-460.16 460.16zM243.712 670.208h516.096c20.359 0 36.864-16.505 36.864-36.864v-319.488c0-20.359-16.505-36.864-36.864-36.864h-516.096c-20.361 0-36.864 16.505-36.864 36.864v319.488c0 20.359 16.503 36.864 36.864 36.864zM281.486 621.056c-14.075 0-25.486-11.003-25.486-24.576v-196.608c0-13.575 11.41-24.576 25.486-24.576h7.282c0 45.246 36.677 81.92 81.92 81.92 45.241 0 81.92-36.674 81.92-81.92h7.282c14.075 0 25.486 11.001 25.486 24.576v196.608c0 13.573-11.41 24.576-25.486 24.576h-178.405zM370.688 604.672c36.194 0 65.536-29.342 65.536-65.536s-29.342-65.536-65.536-65.536c-36.194 0-65.536 29.342-65.536 65.536s29.342 65.536 65.536 65.536zM534.528 539.136v-32.768h212.992v32.768h-212.992zM534.528 440.832v-32.768h212.992v32.768h-212.992z" />
<glyph unicode="&#x30;" glyph-name="stamp-ring" d="M512 960c282.768 0 512-229.23 512-512 0-282.768-229.232-512-512-512-282.77 0-512 229.232-512 512 0 282.77 229.23 512 512 512zM511.36 908.8c-254.139 0-460.16-206.021-460.16-460.16 0-254.142 206.021-460.16 460.16-460.16 254.142 0 460.16 206.018 460.16 460.16 0 254.139-206.018 460.16-460.16 460.16zM263.447 342.528h476.624c13.163 0 23.833-11.001 23.833-24.576v-98.304c0-13.575-10.67-24.576-23.833-24.576h-25.319v-16.384h-425.984v16.384h-25.321c-13.161 0-23.831 11.001-23.831 24.576v98.304c0 13.575 10.67 24.576 23.831 24.576zM433.029 358.912c0 0 19.637 48.19 19.637 84.331 0 84.327-65.458 144.562-65.458 216.843 0 72.283 0 108.425 114.553 108.425s114.553-36.142 114.553-108.425c0-72.281-65.456-132.517-65.456-216.843 0-48.19 19.632-84.331 19.632-84.331h-137.461zM442.183 293.376l59.577-61.44 59.575 61.44h-119.152z" />
<glyph unicode="&#x31;" glyph-name="messenger-ring" d="M512 960c282.768 0 512-229.23 512-512 0-282.768-229.232-512-512-512-282.77 0-512 229.232-512 512 0 282.77 229.23 512 512 512zM511.36 908.8c-254.139 0-460.16-206.021-460.16-460.16 0-254.142 206.021-460.16 460.16-460.16 254.142 0 460.16 206.018 460.16 460.16 0 254.139-206.018 460.16-460.16 460.16zM387.072 702.976c43.518 0 63.922-21.024 73.486-46.206-23.835-34.539-24.334-80.763-24.334-110.633 0-10.487 1.762-23.552 5.264-37.76-13.376-19.906-31.563-34.738-54.416-34.738-53.963 0-81.92 82.706-81.92 119.653 0 36.949 0.976 109.685 81.92 109.685zM327.712 478.233c0 0 7.419-25.568 59.36-25.568s59.36 25.568 59.36 25.568l5.605-2.519c16.238-40.571 44.878-81.746 85.445-95.703-44.021 7.904-51.131 32.334-51.131 32.334s-91.061-40.357-121.415-60.528c-3.296-2.192-6.386-5.367-9.278-9.289h-148.809c0 0 9.566 76.343 31.824 91.182 22.263 14.843 89.040 44.523 89.040 44.523zM567.296 686.592c113.319 0 114.688-93.607 114.688-141.154s-39.138-153.989-114.688-153.989c-75.547 0-114.688 106.441-114.688 153.989s1.365 141.154 114.688 141.154zM491.749 400.553c0 0 9.445-32.537 75.547-32.537 66.105 0 75.55 32.537 75.55 32.537s84.992-37.771 113.323-56.658c33.335-22.224 40.503-116.055 40.503-116.055h-458.752c0 0 12.174 97.168 40.503 116.055 28.334 18.887 113.326 56.658 113.326 56.658z" />
<glyph unicode="&#x32;" glyph-name="benchmarking-ring" d="M512 960c282.768 0 512-229.23 512-512 0-282.768-229.232-512-512-512-282.77 0-512 229.232-512 512 0 282.77 229.23 512 512 512zM511.36 908.8c-254.139 0-460.16-206.021-460.16-460.16 0-254.142 206.021-460.16 460.16-460.16 254.142 0 460.16 206.018 460.16 460.16 0 254.139-206.018 460.16-460.16 460.16zM444.409 768.512h327.595c13.568 0 24.569-11.001 24.569-24.576v-24.576h-376.734v24.576c0 13.575 10.999 24.576 24.569 24.576zM796.569 350.72c0-13.575-10.997-24.576-24.571-24.576h-155.55v49.152h180.121v-24.576zM419.84 702.976h376.729v-311.296h-180.121v69.177l40.96 27.307 70.999-47.333-23.669 82.83 59.166 47.333h-79.381l-27.115 82.83-27.115-82.83h-13.845v33.678c0 27.145-22.007 49.152-49.152 49.152h-147.456v49.152zM231.417 621.056h327.595c13.568 0 24.569-11.003 24.569-24.576v-24.576h-376.734v24.576c0 13.573 11.001 24.576 24.569 24.576zM583.582 203.264c0-13.575-11.001-24.576-24.569-24.576h-327.595c-13.568 0-24.569 11.001-24.569 24.576v24.576h376.734v-24.576zM206.848 555.52h376.734v-311.296h-376.734v311.296z" />
<glyph unicode="&#x33;" glyph-name="award-fill" horiz-adv-x="512" d="M256 320c-45.12 0-87.744 9.248-128 23.552v-407.552l128 128 128-128v407.552c-40.256-14.304-82.88-23.552-128-23.552zM0 704c0-141.385 114.615-256 256-256s256 114.615 256 256c0 141.385-114.615 256-256 256s-256-114.615-256-256z" />
<glyph unicode="&#x34;" glyph-name="winsows" d="M929.536 445.472c-0.224-0.096-0.448-0.224-0.576-0.224 0-0.16 0-0.384 0-0.512-66.304-34.24-127.008-47.84-181.568-47.84-82.592 0-151.104 31.2-203.744 69.728-0.32 0.224-0.736 0.512-0.992 0.8l95.744 362.752c30.272-25.824 98.752-74.144 202.528-74.144 52.256 0 113.312 12.224 183.040 45.568l-94.432-356.128zM300.256 586.56c-0.864 0-1.696 0-2.592 0-49.536 0-108.48-14.368-181.184-46.848l93.376 358.912c70.752 31.584 128.32 44.32 176.32 45.344 0.352 0 0.704 0 1.088 0 28.224 0 53.728-3.68 76.288-9.536 47.232-13.184 115.136-57.696 115.136-57.696v-0.256c-19.456-72.96-77.056-289.152-96.48-361.152-50.688 36.768-105.152 70.368-181.952 71.232zM264.16 499.104c6.144 0.576 12.256 0.768 18.368 0.768 53.888 0 103.072-20.64 138.368-40.448 15.104-8.896 29.376-18.592 43.552-28.224-12.544-47.072-78.656-294.112-98.112-366.336-52.448 38.208-108.032 72.128-188.192 72.128-48.672 0-106.528-12.64-178.112-44.256l94.784 359.744c10.784 4.8 21.312 9.216 31.52 13.248 34.56 13.312 83.776 28.416 137.824 33.376zM726.016 312.8c50.304 0 109.856 10.176 178.944 37.28l-91.072-348.48c-78.528-35.456-141.312-49.568-193.824-49.568-82.976 0-193.568 74.656-193.44 74.56l94.496 359.168c28.768-25.12 95.36-72.96 204.896-72.96z" />
<glyph unicode="&#x35;" glyph-name="envelope" d="M928 832h-832c-53.024 0-96-42.976-96-96v-576c0-52.992 42.976-96 96-96h832c53.024 0 96 43.008 96 96v576c0 53.024-42.976 96-96 96zM87.712 128.32l-23.392 23.424 263.968 263.936 23.392-23.424-263.968-263.936zM936.288 128.32l-263.968 263.936 23.392 23.424 263.968-263.936-23.392-23.424zM544 341.6v-21.6h-64v21.6l-415.904 385.6 40.704 40.704 407.2-377.536 407.2 377.536 40.704-40.704-415.904-385.6z" />
<glyph unicode="&#x36;" glyph-name="printer-ring" d="M512 960c282.768 0 512-229.23 512-512 0-282.768-229.232-512-512-512-282.77 0-512 229.232-512 512 0 282.77 229.23 512 512 512zM511.36 908.8c-254.139 0-460.16-206.021-460.16-460.16 0-254.142 206.021-460.16 460.16-460.16 254.142 0 460.16 206.018 460.16 460.16 0 254.139-206.018 460.16-460.16 460.16zM665.6 768.512v-170.395c81.582-10.599 131.072-30.658 131.072-49.422v-230.743c0-12.288-12.288-24.576-24.576-24.576h-106.496v-114.688h-327.68v114.688h-106.496c-12.288 0-24.576 12.288-24.576 24.576v230.743c0 18.763 49.488 38.823 131.072 49.422v170.395h327.68zM632.832 735.744h-262.144v-134.057c28.551 2.558 60.142 4.009 94.208 4.009h73.728c34.069 0 65.657-1.451 94.208-4.009v134.057zM337.92 358.912v-16.384h32.768v-131.072h81.92c0 18.101 22.007 32.768 49.152 32.768s49.152-14.667 49.152-32.768h81.92v131.072h32.768v16.384h-327.68z" />
<glyph unicode="&#x37;" glyph-name="synergylogo" d="M254.946 330.997h-31.943v-81.943h-26.386v81.943h-31.945v19.442h90.274v-19.442zM414.665 299.703c0-16.361-4.615-29.355-13.845-38.983s-21.993-14.443-38.281-14.443c-16.231 0-28.962 4.816-38.194 14.443-9.23 9.627-13.845 22.622-13.845 38.983 0 16.51 4.615 29.554 13.845 39.138 9.232 9.584 21.963 14.377 38.194 14.377 16.203 0 28.942-4.793 38.215-14.377s13.911-22.629 13.911-39.138zM380.615 273.771c2.592 3.125 4.514 6.807 5.774 11.047 1.259 4.238 1.888 9.23 1.888 14.974 0 6.135-0.72 11.36-2.16 15.678-1.438 4.318-3.326 7.808-5.653 10.471-2.373 2.75-5.104 4.741-8.192 5.979-3.088 1.237-6.304 1.854-9.646 1.854-3.401 0-6.599-0.597-9.593-1.79-2.992-1.193-5.749-3.163-8.267-5.913-2.329-2.576-4.224-6.119-5.687-10.633-1.458-4.514-2.192-9.758-2.192-15.735 0-6.089 0.711-11.28 2.13-15.568 1.417-4.29 3.289-7.787 5.618-10.494 2.315-2.704 5.033-4.702 8.149-5.989 3.118-1.289 6.398-1.934 9.842-1.934 3.429 0 6.702 0.656 9.819 1.966s5.84 3.339 8.169 6.087zM561.881 330.997h-31.941v-81.943h-26.391v81.943h-31.943v19.442h90.274v-19.442zM717.433 249.054h-26.67l-7.227 20.834h-37.781l-7.225-20.834h-26.651l37.653 101.385h30.251l37.65-101.385zM677.417 287.943l-12.782 36.891-12.759-36.891h25.541zM852.153 249.054h-73.609v101.385h26.384v-81.941h47.225v-19.445zM91.063 113.929c0-10.178-4.208-18.434-12.619-24.786-8.414-6.352-19.831-9.527-34.256-9.527-8.345 0-15.621 0.736-21.819 2.201-6.199 1.47-12.005 3.335-17.415 5.591v24.153h2.864c5.397-4.473 11.438-7.906 18.121-10.297 6.683-2.4 13.113-3.593 19.291-3.593 1.579 0 3.659 0.153 6.249 0.457 2.592 0.304 4.695 0.809 6.318 1.52 1.995 0.912 3.641 2.048 4.935 3.415 1.294 1.369 1.943 3.394 1.943 6.089 0 2.256-0.951 4.208-2.855 5.847-1.902 1.641-4.683 2.905-8.343 3.785-3.849 0.928-7.913 1.792-12.197 2.608-4.281 0.809-8.304 1.833-12.064 3.081-8.608 2.814-14.805 6.638-18.587 11.463-3.783 4.832-5.675 10.823-5.675 17.984 0 9.605 4.229 17.447 12.686 23.522 8.455 6.075 19.323 9.113 32.606 9.113 6.667 0 13.253-0.654 19.758-1.963 6.503-1.307 12.133-2.953 16.894-4.937v-23.655h-2.823c-4.107 3.543-9.145 6.517-15.113 8.91s-12.062 3.593-18.281 3.593c-2.187 0-4.368-0.165-6.544-0.491s-4.27-0.942-6.283-1.854c-1.778-0.752-3.31-1.897-4.59-3.44-1.28-1.541-1.92-3.294-1.92-5.262 0-2.72 1.031-4.807 3.093-6.272s5.959-2.791 11.685-3.991c3.762-0.786 7.374-1.545 10.83-2.281 3.458-0.736 7.175-1.76 11.157-3.056 7.84-2.592 13.627-6.112 17.36-10.569 3.73-4.455 5.598-10.247 5.598-17.358zM246.615 183.781l-37.502-62.174v-39.214h-26.386v38l-37.499 63.387h29.035l21.765-39.429 21.399 39.429h29.189zM399.387 82.393h-24.869l-44.574 69.591v-69.591h-23.611v101.387h31.161l38.281-58.078v58.078h23.611v-101.387zM545.216 82.393h-73.609v101.387h73.609v-19.445h-47.221v-18.055h44.443v-19.449h-44.443v-24.992h47.221v-19.447zM670.213 153.111c0 2.592-0.517 4.809-1.552 6.658-1.035 1.842-2.809 3.298-5.326 4.37-1.751 0.738-3.799 1.186-6.142 1.344-2.345 0.16-5.065 0.24-8.16 0.24h-9.376v-27.778h7.966c4.137 0 7.598 0.208 10.384 0.622 2.784 0.409 5.125 1.362 7.019 2.85 1.794 1.431 3.106 3.015 3.938 4.743s1.248 4.048 1.248 6.951zM710.489 82.393h-31.575l-27.625 37.495h-11.632v-37.495h-26.386v101.387h43.554c5.959 0 11.081-0.341 15.362-1.022 4.283-0.679 8.297-2.149 12.043-4.405 3.778-2.258 6.782-5.179 9.017-8.768s3.351-8.094 3.351-13.522c0-7.449-1.712-13.52-5.141-18.224-3.431-4.704-8.318-8.608-14.67-11.719l33.701-43.728zM857.703 87.561c-4.478-1.785-10.423-3.552-17.824-5.312-7.399-1.753-14.775-2.633-22.119-2.633-17.047 0-30.389 4.752-40.030 14.256-9.643 9.504-14.464 22.633-14.464 39.383 0 15.977 4.887 28.853 14.658 38.631 9.774 9.781 23.397 14.67 40.875 14.67 6.624 0 12.928-0.585 18.919-1.758 5.993-1.17 12.656-3.509 19.984-7.008v-23.175h-2.928c-1.271 0.866-3.136 2.089-5.582 3.666-2.457 1.575-4.818 2.921-7.088 4.034-2.633 1.303-5.705 2.43-9.225 3.376-3.511 0.946-7.255 1.419-11.216 1.419-4.631 0-8.832-0.697-12.601-2.094-3.767-1.394-7.15-3.534-10.144-6.409-2.864-2.777-5.122-6.32-6.782-10.617-1.655-4.295-2.482-9.246-2.482-14.862 0-11.474 2.958-20.249 8.875-26.338 5.918-6.078 14.654-9.12 26.215-9.12 0.999 0 2.096 0.016 3.287 0.066 1.193 0.039 2.288 0.11 3.289 0.215v20.553h-19.449v19.44h45.831v-50.384zM1018.816 183.781l-37.504-62.174v-39.214h-26.384v38l-37.495 63.387h29.031l21.767-39.429 21.394 39.429h29.191zM997.335 647.241c0-110.075-89.239-199.312-199.312-199.312-57.403 0-109.138 24.267-145.506 63.102-36.368-38.834-88.103-63.102-145.504-63.102-57.333 0-109.010 24.208-145.371 62.958-36.457-40.066-89.022-65.214-147.456-65.214-85.159 0-157.842 53.406-186.386 128.551 34.283-60.249 99.072-100.885 173.351-100.885 58.437 0 111.001 25.15 147.456 65.216 36.363-38.75 88.041-62.955 145.369-62.955 57.406 0 109.138 24.265 145.506 63.099 36.368-38.834 88.105-63.099 145.506-63.099 110.075 0 199.31 89.234 199.31 199.312 0 24.919-4.569 48.768-12.921 70.759 16.519-29.040 25.959-62.631 25.959-98.43zM706.325 647.241c0-32.416-7.742-63.026-21.472-90.082-6.537 5.577-12.601 11.691-18.126 18.274 16.896 29.275 26.56 63.248 26.56 99.477 0 24.921-4.571 48.77-12.923 70.761 16.523-29.040 25.961-62.631 25.961-98.43zM797.945 801.067c-47.257 0-89.55-21.253-117.84-54.725-3.673 9.57-8.066 18.784-13.109 27.577 28.29 33.525 70.615 54.816 117.913 54.816 67.113 0 124.219-42.871 145.419-102.727-26.953 44.962-76.153 75.058-132.384 75.058zM413.495 644.983c0-31.355-7.239-61.017-20.139-87.408-6.478 5.573-12.485 11.675-17.959 18.24 15.968 28.672 25.063 61.691 25.063 96.837 0 24.921-4.571 48.77-12.923 70.761 16.521-29.038 25.959-62.633 25.959-98.43zM506.935 801.067c-48.29 0-91.394-22.194-119.675-56.937-3.675 9.566-8.066 18.777-13.111 27.57 28.274 34.8 71.415 57.035 119.751 57.035 47.351 0 89.717-21.337 118.007-54.923-1.776-3.102-3.472-6.256-5.083-9.461-26.91 22.898-61.787 36.715-99.888 36.715zM643.723 646.848c0-2.738 0.073-5.461 0.213-8.162-1.248-5.243-2.763-10.384-4.533-15.406-5.643 16.032-8.713 33.275-8.713 51.237s3.070 35.205 8.713 51.237c4.786-13.589 7.721-28.048 8.505-43.074-2.736-11.499-4.185-23.497-4.185-35.831zM214.105 798.809c-85.173 0-154.219-69.047-154.219-154.222 0-18.055 3.104-35.387 8.807-51.49-13.87 23.138-21.84 50.219-21.84 79.161 0 85.173 69.045 154.219 154.219 154.219 47.531 0 90.043-21.504 118.334-55.314-1.721-3.113-3.362-6.279-4.917-9.493-26.976 23.152-62.048 37.138-100.384 37.138zM352.713 646.848c0-0.903 0.009-1.799 0.023-2.697-1.214-6.599-2.85-13.051-4.875-19.326-5.305 15.591-8.181 32.304-8.181 49.691 0 16.549 2.606 32.489 7.433 47.433 5.026-14.784 7.874-30.578 8.155-46.994-1.678-9.113-2.555-18.51-2.555-28.107z" />
<glyph unicode="&#x38;" glyph-name="wrench-ring" d="M512 960c282.768 0 512-229.23 512-512 0-282.768-229.232-512-512-512-282.77 0-512 229.232-512 512 0 282.77 229.23 512 512 512zM511.36 908.8c-254.139 0-460.16-206.021-460.16-460.16 0-254.142 206.021-460.16 460.16-460.16 254.142 0 460.16 206.018 460.16 460.16 0 254.139-206.018 460.16-460.16 460.16zM320.711 810.24c85.931 0 155.591-69.659 155.591-155.591 0-7.063-0.469-14.018-1.381-20.832l1.381 1.385c0-0.002-14.512-43.835 19.449-77.797l116.693-116.693c33.198-33.202 77.794-19.449 77.794-19.449l-1.381-1.385c6.814 0.914 13.765 1.385 20.83 1.385 85.931 0 155.593-69.664 155.593-155.593 0-17.776-2.983-34.857-8.473-50.766l-109.189 109.198-75.995-20.366-20.366-75.995 109.198-109.193c-15.915-5.488-32.99-8.469-50.768-8.469-85.934 0-155.591 69.662-155.591 155.591 0 7.061 0.471 14.018 1.385 20.83l-1.385-1.378c0 0 12.8 45.547-19.449 77.794l-116.69 116.693c-35.323 35.321-77.797 19.449-77.797 19.449l1.383 1.381c-6.814-0.912-13.769-1.381-20.832-1.381-85.931 0-155.591 69.659-155.591 155.591 0 17.774 2.981 34.855 8.471 50.766l109.191-109.193 75.995 20.363 20.361 75.993-109.193 109.193c15.911 5.488 32.99 8.469 50.766 8.469z" />
<glyph unicode="&#x39;" glyph-name="more-ring" d="M512 960c282.768 0 512-229.23 512-512 0-282.768-229.232-512-512-512-282.77 0-512 229.232-512 512 0 282.77 229.23 512 512 512zM511.36 908.8c-254.139 0-460.16-206.021-460.16-460.16 0-254.142 206.021-460.16 460.16-460.16 254.142 0 460.16 206.018 460.16 460.16 0 254.139-206.018 460.16-460.16 460.16zM159.785 446.505c0 0 0 0 0 0 0-57.496 46.61-104.106 104.106-104.106s104.106 46.61 104.106 104.106c0 0 0 0 0 0s0 0 0 0c0 57.496-46.61 104.106-104.106 104.106s-104.106-46.61-104.106-104.106c0 0 0 0 0 0zM419.198 446.505c0 0 0 0 0 0 0-57.497 46.61-104.107 104.107-104.107s104.107 46.61 104.107 104.107c0 0 0 0 0 0s0 0 0 0c0 57.497-46.61 104.107-104.107 104.107s-104.107-46.61-104.107-104.107c0 0 0 0 0 0zM678.615 446.505c0 0 0 0 0 0 0-57.496 46.609-104.105 104.105-104.105s104.105 46.609 104.105 104.105c0 0 0 0 0 0s0 0 0 0c0 57.496-46.609 104.105-104.105 104.105s-104.105-46.609-104.105-104.105c0 0 0 0 0 0z" />
<glyph unicode="&#x3a;" glyph-name="add-ring" d="M512 960c282.768 0 512-229.23 512-512 0-282.768-229.232-512-512-512-282.77 0-512 229.232-512 512 0 282.77 229.23 512 512 512zM511.36 908.8c-254.139 0-460.16-206.021-460.16-460.16 0-254.142 206.021-460.16 460.16-460.16 254.142 0 460.16 206.018 460.16 460.16 0 254.139-206.018 460.16-460.16 460.16zM423.68 770.56h183.040v-227.84h230.4v-158.72h-230.4v-227.84h-183.040v227.84h-231.68v158.72h231.68v227.84z" />
<glyph unicode="&#x3b;" glyph-name="home2" d="M1024 369.557l-512 397.426-512-397.429v162.037l512 397.426 512-397.426zM896 384v-384h-256v256h-256v-256h-256v384l384 288z" />
<glyph unicode="&#x3c;" glyph-name="images" d="M128 704v-640h896v640h-896zM960 170.665l-128 213.335-145.065-120.889-110.935 184.889-384-320v512h768v-469.335zM256 480c0-53.019 42.981-96 96-96s96 42.981 96 96c0 53.019-42.981 96-96 96s-96-42.981-96-96zM896 832h-896v-640h64v576h832z" />
<glyph unicode="&#x3d;" glyph-name="camera" d="M384 672c0-88.366 71.634-160 160-160s160 71.634 160 160c0 88.366-71.634 160-160 160s-160-71.634-160-160zM0 672c0-88.366 71.634-160 160-160s160 71.634 160 160c0 88.366-71.634 160-160 160s-160-71.634-160-160zM768 352v96c0 35.2-28.8 64-64 64h-640c-35.2 0-64-28.8-64-64v-320c0-35.2 28.8-64 64-64h640c35.2 0 64 28.8 64 64v96l256-160v448l-256-160zM640 192h-512v192h512v-192z" />
<glyph unicode="&#x3e;" glyph-name="support" d="M512 960c-282.77 0-512-229.23-512-512s229.23-512 512-512 512 229.23 512 512-229.23 512-512 512zM320 448c0 106.041 85.959 192 192 192s192-85.959 192-192-85.959-192-192-192-192 85.961-192 192zM925.979 276.523v0l-177.419 73.49c12.519 30.185 19.44 63.275 19.44 97.986s-6.921 67.801-19.44 97.986l177.419 73.49c21.909-52.823 34.021-110.731 34.021-171.477s-12.114-118.654-34.021-171.477v0zM683.479 861.979v0 0l-73.49-177.419c-30.185 12.519-63.278 19.44-97.989 19.44s-67.801-6.921-97.986-19.44l-73.49 177.422c52.823 21.904 110.731 34.018 171.477 34.018s118.654-12.114 171.479-34.021zM98.021 619.477l177.422-73.49c-12.519-30.185-19.442-63.275-19.442-97.986s6.921-67.801 19.44-97.986l-177.419-73.49c-21.906 52.823-34.021 110.731-34.021 171.477s12.114 118.654 34.021 171.477zM340.523 34.021l73.49 177.419c30.185-12.519 63.275-19.44 97.986-19.44s67.801 6.921 97.986 19.44l73.49-177.419c-52.823-21.904-110.731-34.021-171.477-34.021s-118.654 12.114-171.477 34.021z" />
<glyph unicode="&#x3f;" glyph-name="coin" d="M480 896c-265.097 0-480-214.903-480-480s214.903-480 480-480c265.097 0 480 214.903 480 480s-214.903 480-480 480zM480 32c-212.078 0-384 171.922-384 384s171.922 384 384 384c212.078 0 384-171.922 384-384s-171.922-384-384-384zM512 448v128h128v64h-128v64h-64v-64h-128v-256h128v-128h-128v-64h128v-64h64v64h128.002l-0.002 256h-128zM448 448h-64v128h64v-128zM576.002 256h-64.002v128h64.002v-128z" />
<glyph unicode="&#x40;" glyph-name="cart" d="M977.582 765.538c-33.984 9.707-69.41-9.97-79.12-43.957l-5.022-17.582h-596.942l-8.992 71.938c-4.005 32.027-31.23 56.062-63.506 56.062h-160c-35.346 0-64-28.654-64-64s28.654-64 64-64h103.502l56.992-455.938c4.005-32.025 31.23-56.062 63.506-56.062h544c28.574 0 53.689 18.944 61.538 46.418l128 448c9.71 33.986-9.97 69.41-43.957 79.12zM512 448v64h127.995v-64h-127.995zM639.995 384v-64h-127.995v64h127.995zM512 576v64h127.995v-64h-127.995zM304.498 640h143.502v-64h-135.502l-8 64zM320.498 512h127.502v-64h-119.502l-8 64zM336.498 384h111.502v-64h-103.502l-8 64zM783.723 320h-79.728v64h98.014l-18.286-64zM820.297 448h-116.299v64h134.585l-18.286-64zM856.869 576h-152.873v64h171.159l-18.286-64zM256 32c0-53.019 42.981-96 96-96s96 42.981 96 96c0 53.019-42.981 96-96 96s-96-42.981-96-96zM640 32c0-53.019 42.981-96 96-96s96 42.981 96 96c0 53.019-42.981 96-96 96s-96-42.981-96-96z" />
<glyph unicode="&#x41;" glyph-name="phone" d="M704 320c-64-64-64-128-128-128s-128 64-192 128-128 128-128 192 64 64 128 128-128 256-192 256-192-192-192-192c0-128 131.499-387.499 256-512s384-256 512-256c0 0 192 128 192 192s-192 256-256 192z" />
<glyph unicode="&#x42;" glyph-name="location" d="M512 960c-176.731 0-320-143.269-320-320 0-320 320-704 320-704s320 384 320 704c0 176.731-143.271 320-320 320zM512 448c-106.041 0-192 85.959-192 192s85.959 192 192 192 192-85.959 192-192-85.961-192-192-192z" />
<glyph unicode="&#x43;" glyph-name="map" d="M672 768l-320 128-352-128v-768l352 128 320-128 352 128v768l-352-128zM384 814.27l256-102.4v-630.137l-256 102.398v630.139zM64 723.173l256 93.090v-631.799l-256-93.090v631.799zM960 172.827l-256-93.093v631.799l256 93.090v-631.797z" />
<glyph unicode="&#x44;" glyph-name="folder-open2" d="M832 0l192 512h-832l-192-512zM128 576l-128-576v832h288l128-128h416v-128z" />
<glyph unicode="&#x45;" glyph-name="stack" d="M1024 640l-512 256-512-256 512-256 512 256zM512 811.031l342.057-171.031-342.057-171.031-342.057 171.031 342.057 171.031zM921.445 499.278l102.555-51.278-512-256-512 256 102.555 51.278 409.445-204.722zM921.445 307.278l102.555-51.278-512-256-512 256 102.555 51.278 409.445-204.722z" />
<glyph unicode="&#x46;" glyph-name="download" d="M512 384l256 256h-192v256h-128v-256h-192zM744.727 488.729l-71.742-71.744 260.080-96.985-421.065-157.017-421.065 157.017 260.080 96.985-71.744 71.744-279.271-104.729v-256l512-192 512 192v256z" />
<glyph unicode="&#x47;" glyph-name="user2" d="M622.825 257.264c-22.11 3.518-22.615 64.313-22.615 64.313s64.969 64.315 79.127 150.802c38.089 0 61.618 91.945 23.522 124.297 1.593 34.053 48.962 267.323-190.859 267.323s-192.45-233.271-190.864-267.323c-38.094-32.35-14.569-124.297 23.522-124.297 14.158-86.487 79.127-150.802 79.127-150.802s-0.505-60.795-22.615-64.313c-71.218-11.333-337.17-128.633-337.17-257.264h896c0 128.631-265.952 245.931-337.175 257.264z" />
<glyph unicode="&#x48;" glyph-name="users2" d="M734.994 154.626c-18.953 2.987-19.383 54.654-19.383 54.654s55.689 54.656 67.824 128.151c32.651 0 52.814 78.137 20.165 105.627 1.362 28.939 41.968 227.175-163.598 227.175-205.563 0-164.958-198.235-163.598-227.175-32.654-27.49-12.487-105.627 20.162-105.627 12.135-73.495 67.826-128.151 67.826-128.151s-0.432-51.666-19.383-54.654c-61.051-9.632-289.010-109.317-289.010-218.626h768c0 109.31-227.959 208.994-289.006 218.626zM344.055 137.191c44.094 27.15 97.625 52.309 141.538 67.424-15.753 22.432-33.294 52.937-44.329 89.063-15.406 12.567-27.945 30.533-35.998 52.601-8.066 22.105-11.122 46.853-8.608 69.685 1.803 16.391 6.478 31.666 13.65 45.088-4.35 46.585-7.415 138.034 52.448 204.731 23.214 25.865 52.555 44.459 87.701 55.687-6.277 64.759-39.163 140.768-166.457 140.768-205.563 0-164.958-198.235-163.598-227.175-32.654-27.49-12.487-105.627 20.162-105.627 12.135-73.495 67.826-128.151 67.826-128.151s-0.432-51.666-19.383-54.654c-61.049-9.637-289.008-109.321-289.008-218.631h329.595c4.711 3.074 9.506 6.139 14.459 9.191z" />
<glyph unicode="&#x49;" glyph-name="mobile2" d="M736 960h-448c-52.8 0-96-43.2-96-96v-832c0-52.8 43.2-96 96-96h448c52.8 0 96 43.2 96 96v832c0 52.8-43.2 96-96 96zM384 912h256v-32h-256v32zM512 0c-35.346 0-64 28.654-64 64s28.654 64 64 64 64-28.654 64-64-28.654-64-64-64zM768 192h-512v640h512v-640z" />
<glyph unicode="&#x4a;" glyph-name="laptop2" d="M896 256v512c0 35.2-28.8 64-64 64h-640c-35.2 0-64-28.8-64-64v-512h-128v-192h1024v192h-128zM640 128h-256v64h256v-64zM832 256h-640v511.886c0.034 0.041 0.075 0.082 0.114 0.114h639.769c0.041-0.034 0.082-0.075 0.117-0.117v-511.883z" />
<glyph unicode="&#x4b;" glyph-name="mobile3" d="M768 960h-576c-35.2 0-64-28.798-64-64v-896c0-35.2 28.798-64 64-64h576c35.2 0 64 28.8 64 64v896c0 35.202-28.8 64-64 64zM480-17.783c-27.493 0-49.783 22.29-49.783 49.783s22.29 49.783 49.783 49.783 49.783-22.29 49.783-49.783-22.29-49.783-49.783-49.783zM768 128h-576v704h576v-704z" />
<glyph unicode="&#x4c;" glyph-name="screen" d="M1024 128v768h-1024v-768h448v-64h-192v-64h512v64h-192v64h448zM128 768h768v-512h-768v512z" />
<glyph unicode="&#x4d;" glyph-name="calendar2" d="M320 576h128v-128h-128zM512 576h128v-128h-128zM704 576h128v-128h-128zM128 192h128v-128h-128zM320 192h128v-128h-128zM512 192h128v-128h-128zM320 384h128v-128h-128zM512 384h128v-128h-128zM704 384h128v-128h-128zM128 384h128v-128h-128zM832 960v-64h-128v64h-448v-64h-128v64h-128v-1024h960v1024h-128zM896 0h-832v704h832v-704z" />
<glyph unicode="&#x4e;" glyph-name="clock" d="M658.745 210.745l-210.745 210.745v282.51h128v-229.49l173.255-173.255zM512 960c-282.77 0-512-229.23-512-512s229.23-512 512-512 512 229.23 512 512-229.23 512-512 512zM512 64c-212.078 0-384 171.922-384 384s171.922 384 384 384c212.078 0 384-171.922 384-384s-171.922-384-384-384z" />
<glyph unicode="&#x4f;" glyph-name="bubbles" horiz-adv-x="1152" d="M1088 58.834c0-45.499 26.027-84.907 64-104.185v-15.936c-10.626-1.456-21.472-2.224-32.501-2.224-68.007 0-129.346 28.528-172.722 74.263-26.222-6.983-54.002-10.752-82.777-10.752-159.058 0-288 114.615-288 256s128.942 256 288 256c159.058 0 288-114.615 288-256 0-55.349-19.765-106.592-53.355-148.466-6.825-14.823-10.645-31.312-10.645-48.699zM512 960c278.457 0 504.992-180.615 511.835-405.52-49.182 21.92-103.586 33.52-159.835 33.52-95.561 0-185.817-33.447-254.137-94.178-70.848-62.971-109.863-147.433-109.863-237.822 0-44.672 9.543-87.888 27.737-127.787-5.23-0.126-10.469-0.213-15.737-0.213-27.157 0-53.81 1.735-79.824 5.045-109.977-109.979-241.25-129.701-368.176-132.597v26.917c68.535 33.577 128 94.741 128 164.635 0 9.753-0.759 19.33-2.165 28.697-115.794 76.263-189.835 192.752-189.835 323.303 0 229.751 229.23 416 512 416z" />
<glyph unicode="&#x50;" glyph-name="user3" d="M320 768c0-106.039 85.961-192 192-192s192 85.961 192 192c0 106.039-85.961 192-192 192s-192-85.961-192-192zM768.078 512h-35.424l-199.104-404.245 74.45 372.245-96 96-96-96 74.45-372.245-199.102 404.245h-35.424c-127.925 0-127.925-85.986-127.925-192v-320h768v320c0 106.014 0 192-127.922 192z" />
<glyph unicode="&#x51;" glyph-name="cogs2" d="M363.721 237.947l41.298 57.815-45.255 45.257-57.817-41.296c-10.722 5.993-22.203 10.775-34.265 14.192l-11.682 70.085h-64l-11.68-70.087c-12.062-3.417-23.543-8.199-34.265-14.192l-57.819 41.298-45.255-45.255 41.298-57.815c-5.993-10.72-10.775-22.206-14.192-34.265l-70.087-11.685v-64l70.087-11.682c3.417-12.059 8.199-23.543 14.192-34.265l-41.298-57.817 45.255-45.257 57.817 41.296c10.722-5.993 22.203-10.775 34.265-14.192l11.682-70.082h64l11.68 70.087c12.062 3.417 23.543 8.199 34.265 14.192l57.817-41.296 45.255 45.257-41.298 57.815c5.993 10.72 10.775 22.206 14.192 34.265l70.089 11.68v64l-70.087 11.682c-3.417 12.059-8.197 23.543-14.192 34.265zM224 96c-35.349 0-64 28.654-64 64s28.651 64 64 64 64-28.654 64-64-28.651-64-64-64zM1024 576v64l-67.383 12.249c-1.241 8.046-2.832 15.977-4.725 23.79l57.559 37.099-24.491 59.129-66.944-14.469c-4.215 6.91-8.727 13.621-13.493 20.13l39.006 56.343-45.257 45.255-56.343-39.006c-6.512 4.766-13.221 9.275-20.13 13.495l14.469 66.944-59.125 24.491-37.099-57.559c-7.813 1.893-15.744 3.481-23.79 4.725l-12.254 67.383h-64l-12.251-67.383c-8.046-1.241-15.977-2.832-23.79-4.725l-37.099 57.559-59.127-24.491 14.469-66.944c-6.91-4.217-13.621-8.727-20.13-13.495l-56.343 39.006-45.255-45.255 39.006-56.343c-4.766-6.51-9.278-13.221-13.495-20.13l-66.944 14.469-24.491-59.129 57.559-37.099c-1.893-7.813-3.481-15.742-4.725-23.79l-67.383-12.249v-64l67.383-12.249c1.241-8.046 2.832-15.977 4.725-23.79l-57.559-37.099 24.491-59.129 66.944 14.469c4.217-6.91 8.727-13.618 13.495-20.13l-39.006-56.343 45.255-45.257 56.343 39.006c6.51-4.766 13.221-9.275 20.13-13.493l-14.469-66.944 59.129-24.491 37.102 57.559c7.81-1.893 15.742-3.481 23.787-4.725l12.249-67.383h64l12.251 67.383c8.043 1.241 15.977 2.832 23.79 4.725l37.099-57.559 59.129 24.491-14.469 66.944c6.91 4.217 13.621 8.727 20.13 13.493l56.343-39.006 45.257 45.257-39.006 56.343c4.766 6.512 9.275 13.221 13.493 20.13l66.944-14.469 24.491 59.129-57.559 37.099c1.893 7.813 3.481 15.742 4.725 23.79l67.381 12.249zM672 468.8c-76.878 0-139.2 62.322-139.2 139.2s62.32 139.2 139.2 139.2 139.2-62.322 139.2-139.2c0-76.878-62.32-139.2-139.2-139.2z" />
<glyph unicode="&#x52;" glyph-name="cog2" d="M933.79 349.751c-53.726 93.054-21.417 212.304 72.153 266.487l-100.626 174.293c-28.75-16.855-62.176-26.519-97.847-26.519-107.536 0-194.709 87.746-194.709 195.991h-201.257c0.265-33.41-8.073-67.282-25.959-98.251-53.723-93.056-173.157-124.702-266.862-70.759l-100.624-174.293c28.969-16.473 54.050-40.587 71.886-71.479 53.639-92.907 21.513-211.92-71.707-266.224l100.626-174.293c28.649 16.697 61.915 26.254 97.401 26.254 107.195 0 194.144-87.191 194.699-194.958h201.255c-0.087 33.074 8.272 66.569 25.966 97.218 53.637 92.905 172.777 124.594 266.414 71.013l100.626 174.29c-28.782 16.466-53.694 40.498-71.435 71.23zM512 240.667c-114.507 0-207.337 92.825-207.337 207.335 0 114.507 92.825 207.335 207.337 207.335 114.507 0 207.333-92.825 207.333-207.335-0.002-114.51-92.825-207.335-207.333-207.335z" />
<glyph unicode="&#x53;" glyph-name="equalizer" d="M896 512h16c26.4 0 48 21.6 48 48v160c0 26.4-21.6 48-48 48h-16v192h-128v-192h-16c-26.4 0-48-21.6-48-48v-160c0-26.4 21.6-48 48-48h16v-576h128v576zM768 704h128v-128h-128v128zM592 128c26.4 0 48 21.6 48 48v160c0 26.4-21.6 48-48 48h-16v576h-128v-576h-16c-26.4 0-48-21.6-48-48v-160c0-26.4 21.6-48 48-48h16v-192h128v192h16zM448 320h128v-128h-128v128zM272 512c26.4 0 48 21.6 48 48v160c0 26.4-21.6 48-48 48h-16v192h-128v-192h-16c-26.4 0-48-21.6-48-48v-160c0-26.4 21.6-48 48-48h16v-576h128v576h16zM128 704h128v-128h-128v128z" />
<glyph unicode="&#x54;" glyph-name="wrench3" d="M1002.935 142.123l-460.553 394.759c21.449 40.299 33.618 86.283 33.618 135.118 0 159.058-128.942 288-288 288-29.095 0-57.173-4.331-83.646-12.354l166.391-166.391c24.889-24.889 24.889-65.621 0-90.51l-101.49-101.49c-24.889-24.889-65.621-24.889-90.51 0l-166.391 166.391c-8.023-26.473-12.354-54.551-12.354-83.646 0-159.058 128.942-288 288-288 48.834 0 94.818 12.169 135.115 33.621l394.759-460.553c22.907-26.725 62.016-28.226 86.903-3.337l101.493 101.493c24.891 24.887 23.387 63.993-3.335 86.901z" />
<glyph unicode="&#x55;" glyph-name="key" d="M704 960c-176.729 0-320-143.269-320-320 0-20.025 1.858-39.616 5.376-58.624l-389.376-389.376v-192c0-35.346 28.654-64 64-64h64v64h128v128h128v128h128l83.042 83.042c34.009-12.315 70.695-19.042 108.958-19.042 176.729 0 320 143.269 320 320s-143.271 320-320 320zM799.874 639.874c-53.019 0-96 42.981-96 96s42.981 96 96 96 96-42.981 96-96-42.981-96-96-96z" />
<glyph unicode="&#x56;" glyph-name="search2" d="M992.263 88.603l-242.553 206.295c-25.074 22.567-51.89 32.926-73.552 31.927 57.257 67.067 91.842 154.078 91.842 249.175 0 212.078-171.922 384-384 384-212.075 0-384-171.922-384-384s171.922-384 384-384c95.097 0 182.107 34.585 249.175 91.845-1.001-21.662 9.36-48.478 31.927-73.552l206.295-242.553c35.321-39.246 93.022-42.553 128.219-7.355s31.893 92.898-7.353 128.219zM384 320c-141.383 0-256 114.617-256 256s114.617 256 256 256 256-114.617 256-256-114.615-256-256-256z" />
<glyph unicode="&#x57;" glyph-name="cloud2" d="M1024 302.457c0 82.089-56.679 150.901-132.997 169.479-3.241 128.702-108.457 232.064-237.861 232.064-75.792 0-143.266-35.495-186.855-90.731-24.441 31.598-62.69 51.961-105.707 51.961-73.81 0-133.641-59.874-133.641-133.721 0-6.437 0.48-12.759 1.365-18.953-11.223 2.023-22.766 3.138-34.569 3.138-107.001-0.002-193.735-86.791-193.735-193.847 0-107.061 86.734-193.847 193.73-193.847l656.263 0.011c96.137 0.185 174.007 78.213 174.007 174.446z" />
<glyph unicode="&#x58;" glyph-name="menu" d="M64 768h896v-192h-896zM64 512h896v-192h-896zM64 256h896v-192h-896z" />
<glyph unicode="&#x59;" glyph-name="office" d="M0-64h512v1024h-512v-1024zM320 832h128v-128h-128v128zM320 576h128v-128h-128v128zM320 320h128v-128h-128v128zM64 832h128v-128h-128v128zM64 576h128v-128h-128v128zM64 320h128v-128h-128v128zM576 640h448v-64h-448zM576-64h128v256h192v-256h128v576h-448z" />
<glyph unicode="&#x5a;" glyph-name="earth" d="M874.039 810.039c96.704-96.704 149.961-225.28 149.961-362.041 0-136.759-53.257-265.333-149.961-362.037s-225.28-149.961-362.039-149.961c-136.759 0-265.335 53.257-362.039 149.961s-149.961 225.278-149.961 362.037c0 136.761 53.255 265.337 149.961 362.041 96.704 96.704 225.28 149.961 362.039 149.961s265.335-53.257 362.039-149.961zM828.784 131.214c63.058 63.061 104.985 141.609 122.272 227.063-13.474-19.838-26.361-27.195-34.343 17.205-8.222 72.391-74.709 26.149-116.517 51.861-44.005-29.657-142.907 57.662-126.098-40.823 25.934-44.423 140.007 59.449 83.147-34.542-36.274-65.616-132.642-210.933-120.105-286.258 1.582-109.744-112.135-22.885-151.314 13.52-26.357 72.919-8.983 200.373-77.897 236.085-74.802 3.248-139.006 10.046-167.995 93.671-17.447 59.829 18.565 148.894 82.679 162.645 93.849 58.965 127.374-69.054 215.39-71.435 27.328 28.594 101.815 37.687 107.991 69.751-57.749 10.19 73.269 48.558-5.527 70.382-43.47-5.113-71.479-45.074-48.368-78.958-84.238-19.641-86.937 121.904-167.911 77.257-2.057-70.59-132.222-22.885-45.035-8.571 29.957 13.088-48.859 51.015-6.279 44.123 20.914 1.136 91.33 25.813 72.274 42.402 39.211 24.341 72.16-58.29 110.539 1.883 27.707 46.265-11.621 54.807-46.352 31.355-19.579 21.925 34.571 69.275 82.334 89.737 15.918 6.821 31.122 10.537 42.745 9.483 24.059-27.792 68.551-32.606 70.878 3.342-59.582 28.535-125.275 43.609-193.291 43.609-97.623 0-190.471-31.024-267.307-88.391 20.649-9.458 32.373-21.237 12.478-36.295-15.456-46.055-78.169-107.877-133.225-99.125-28.585-49.296-47.41-103.605-55.458-160.528 46.112-15.255 56.743-45.449 46.834-55.55-23.495-20.487-37.936-49.529-45.376-81.321 15.010-91.838 58.174-176.478 125.271-243.577 84.617-84.615 197.118-131.214 316.784-131.214 119.664 0 232.169 46.599 316.784 131.214z" />
<glyph unicode="&#x5b;" glyph-name="flag2" d="M832 787.694c76.466 0 145.093 41.623 192 73.106v-595.689c-46.907-31.486-115.534-73.111-192-73.111s-145.093 22.67-192 54.155c-46.907 31.481-115.534 54.151-192 54.151s-145.090-38.917-192-70.395v595.689c46.91 31.483 115.534 70.4 192 70.4s145.093-22.667 192-54.151c46.907-31.486 115.534-54.155 192-54.155zM128 960c35.346 0 64-28.654 64-64v-960h-128v960c0 35.346 28.654 64 64 64z" />
<glyph unicode="&#x5c;" glyph-name="star2" d="M1024 562.951l-353.781 51.408-158.219 320.581-158.217-320.583-353.783-51.406 256-249.538-60.432-352.352 316.432 166.357 316.432-166.359-60.434 352.352 256.002 249.541z" />
<glyph unicode="&#x5d;" glyph-name="star3" d="M1024 562.951l-353.781 51.408-158.219 320.581-158.217-320.583-353.783-51.406 256-249.538-60.432-352.352 316.432 166.357 316.432-166.359-60.434 352.352 256.002 249.541zM512 206.503l-223.463-117.481 42.677 248.83-180.786 176.222 249.84 36.304 111.733 226.398 111.737-226.395 249.835-36.304-180.789-176.222 42.679-248.83-223.463 117.479z" />
<glyph unicode="&#x5e;" glyph-name="info2" d="M512 960c-282.77 0-512-229.23-512-512s229.23-512 512-512 512 229.23 512 512-229.23 512-512 512zM512 32c-229.751 0-416 186.249-416 416s186.249 416 416 416 416-186.249 416-416-186.249-416-416-416zM448 704h128v-128h-128zM640 192h-256v64h64v192h-64v64h192v-256h64z" />
<glyph unicode="&#x5f;" glyph-name="question2" d="M448 256h128v-128h-128zM704 704c35.346 0 64-28.654 64-64v-192l-192-128h-128v64l192 128v64h-320v128h384zM512 864c-111.118 0-215.584-43.271-294.155-121.845-78.574-78.571-121.845-183.038-121.845-294.155s43.271-215.584 121.845-294.155c78.571-78.571 183.038-121.845 294.155-121.845s215.584 43.273 294.155 121.845c78.571 78.571 121.845 183.038 121.845 294.155s-43.273 215.584-121.845 294.155c-78.571 78.574-183.038 121.845-294.155 121.845zM512 960v0c282.77 0 512-229.23 512-512s-229.23-512-512-512c-282.77 0-512 229.23-512 512s229.23 512 512 512z" />
<glyph unicode="&#x60;" glyph-name="notification" d="M512 864c-111.118 0-215.584-43.271-294.155-121.845-78.574-78.571-121.845-183.038-121.845-294.155s43.271-215.584 121.845-294.155c78.571-78.571 183.038-121.845 294.155-121.845s215.584 43.273 294.155 121.845c78.571 78.571 121.845 183.038 121.845 294.155s-43.273 215.584-121.845 294.155c-78.571 78.574-183.038 121.845-294.155 121.845zM512 960v0c282.77 0 512-229.23 512-512s-229.23-512-512-512c-282.77 0-512 229.23-512 512s229.23 512 512 512zM448 256h128v-128h-128zM448 768h128v-384h-128z" />
<glyph unicode="&#x61;" glyph-name="table2" d="M0 896v-896h1024v896h-1024zM384 320v192h256v-192h-256zM640 256v-192h-256v192h256zM640 768v-192h-256v192h256zM320 768v-192h-256v192h256zM64 512h256v-192h-256v192zM704 512h256v-192h-256v192zM704 576v192h256v-192h-256zM64 256h256v-192h-256v192zM704 64v192h256v-192h-256z" />
<glyph unicode="&#x62;" glyph-name="filter" d="M0 832l384-384v-384l256 64v320l384 384z" />
<glyph unicode="&#x63;" glyph-name="code" d="M128 448l256 256h-128l-256-256 256-256h128zM768 704h-128l256-256-256-256h128l256 256zM544 832l-160-768h96l160 768z" />
<glyph unicode="&#x64;" glyph-name="share2" d="M864 256c-45.161 0-85.92-18.738-115.013-48.83l-431.003 215.502c1.314 8.251 2.016 16.706 2.016 25.328s-0.702 17.077-2.016 25.326l431.003 215.502c29.093-30.089 69.854-48.827 115.013-48.827 88.366 0 160 71.634 160 160s-71.634 160-160 160-160-71.634-160-160c0-8.622 0.704-17.077 2.016-25.326l-431.003-215.504c-29.093 30.089-69.854 48.83-115.013 48.83-88.366 0-160-71.637-160-160 0-88.368 71.634-160 160-160 45.161 0 85.92 18.738 115.013 48.827l431.003-215.502c-1.312-8.249-2.016-16.704-2.016-25.326 0-88.368 71.634-160 160-160s160 71.632 160 160c0 88.363-71.634 160-160 160z" />
<glyph unicode="&#x65;" glyph-name="google" d="M789.534 896c0 0-200.955 0-267.941 0-120.121 0-233.17-91.006-233.17-196.423 0-107.726 81.881-194.665 204.087-194.665 8.498 0 16.757 0.169 24.839 0.752-7.929-15.186-13.6-32.288-13.6-50.041 0-29.938 16.103-54.21 36.469-74.025-15.385 0-30.242-0.448-46.453-0.448-148.782 0.002-263.301-94.761-263.301-193.022 0-96.777 125.543-157.312 274.334-157.312 169.623 0 263.305 96.245 263.305 193.029 0 77.602-22.896 124.073-93.687 174.135-24.217 17.143-70.533 58.837-70.533 83.344 0 28.72 8.197 42.869 51.429 76.647 44.311 34.624 75.673 83.303 75.673 139.915 0 67.406-30.023 133.097-86.375 154.773h84.955l59.968 43.342zM695.947 240.542c2.126-8.971 3.285-18.208 3.285-27.627 0-78.199-50.391-139.31-194.974-139.31-102.841 0-177.115 65.104-177.115 143.301 0 76.642 92.126 140.443 194.965 139.333 24-0.254 46.368-4.117 66.667-10.69 55.826-38.83 95.874-60.761 107.173-105.006zM531.287 532.224c-69.038 2.064-134.635 77.225-146.553 167.861-11.915 90.665 34.37 160.041 103.387 157.991 69.008-2.075 134.638-74.816 146.558-165.461 11.906-90.658-34.389-162.457-103.392-160.391z" />
<glyph unicode="&#x66;" glyph-name="google-drive" d="M459.33 300.169l-170.654-295.669h564.654l170.67 295.669zM975.611 384l-292.933 507.499h-341.349l292.955-507.499zM292.837 807.486l-292.837-507.317 170.677-295.669 292.832 507.323z" />
<glyph unicode="&#x67;" glyph-name="facebook" d="M575.87-64h-191.87v512h-128v176.45l128 0.057-0.208 103.952c0 143.952 39.033 231.541 208.599 231.541h141.175v-176.485h-88.231c-66.032 0-69.207-24.656-69.207-70.683l-0.263-88.325h158.69l-18.704-176.45-139.851-0.057-0.13-512z" />
<glyph unicode="&#x68;" glyph-name="twitter" d="M1024 765.582c-37.675-16.709-78.165-28.002-120.661-33.081 43.371 26 76.686 67.17 92.373 116.231-40.597-24.078-85.557-41.561-133.41-50.981-38.32 40.83-92.921 66.341-153.346 66.341-116.023 0-210.087-94.057-210.087-210.078 0-16.466 1.858-32.501 5.44-47.879-174.601 8.763-329.401 92.4-433.017 219.506-18.085-31.029-28.446-67.115-28.446-105.618 0-72.889 37.088-137.193 93.461-174.866-34.439 1.093-66.832 10.542-95.154 26.279-0.021-0.875-0.021-1.755-0.021-2.642 0-101.787 72.418-186.697 168.521-206-17.625-4.8-36.187-7.371-55.349-7.371-13.538 0-26.697 1.321-39.527 3.771 26.736-83.461 104.32-144.206 196.251-145.895-71.899-56.35-162.487-89.934-260.917-89.934-16.958 0-33.68 0.994-50.117 2.939 92.971-59.609 203.401-94.393 322.041-94.393 386.423 0 597.737 320.123 597.737 597.744 0 9.109-0.206 18.167-0.61 27.179 41.056 29.621 76.672 66.619 104.837 108.747z" />
<glyph unicode="&#x69;" glyph-name="tumblr" d="M576.032 512l-0.002-234.183c0-59.419-0.77-93.657 5.529-110.501 6.251-16.754 21.92-34.146 38.992-44.203 22.683-13.586 48.542-20.375 77.707-20.375 51.854 0 82.478 6.848 133.742 40.539v-153.943c-43.701-20.553-81.865-32.594-117.323-40.923-35.502-8.242-73.861-12.405-115.065-12.405-46.827 0-74.455 5.886-110.409 17.655-35.959 11.867-66.661 28.807-92.021 50.539-25.449 21.922-43.022 45.209-52.848 69.833-9.826 24.635-14.715 60.414-14.715 107.243v359.099h-137.426v145.008c40.208 13.040 85.163 31.787 113.781 56.151 28.754 24.45 51.765 53.705 69.106 87.943 17.392 34.146 29.346 77.712 35.872 130.517h165.083l-0.002-255.995h255.968v-192h-255.968z" />
<glyph unicode="&#x6a;" glyph-name="yahoo" d="M848 320l-14.857 416.021c-0.629 17.589 13.257 31.979 30.857 31.979h128c17.6 0 29.467-14.176 26.377-31.502l-74.377-416.498zM960 184c0-30.8-25.2-56-56-56h-16c-30.8 0-56 25.2-56 56v16c0 30.8 25.2 56 56 56h16c30.8 0 56-25.2 56-56v-16zM384 768c-212.078 0-384-143.269-384-320 0-176.729 171.922-320 384-320s384 143.271 384 320c0 176.731-171.922 320-384 320zM640 512h-74.263l-117.737-117.739v-74.261h96v-64h-256v64h96v74.261l-181.739 181.739h-42.062v64h191.607v-64h-42.066l106.261-106.261 32 32v74.261h192v-64z" />
<glyph unicode="&#x6b;" glyph-name="apple" d="M791.497 415.909c-1.294 129.682 105.758 191.877 110.542 194.967-60.153 88.021-153.849 100.078-187.241 101.472-79.742 8.073-155.595-46.949-196.066-46.949-40.368 0-102.818 45.753-168.951 44.551-86.917-1.291-167.058-50.537-211.813-128.379-90.304-156.697-23.127-388.839 64.889-515.927 43.008-62.203 94.293-132.075 161.625-129.579 64.841 2.587 89.362 41.959 167.755 41.959s100.427-41.959 169.049-40.67c69.774 1.296 113.982 63.399 156.693 125.797 49.39 72.169 69.726 142.039 70.923 145.625-1.545 0.706-136.057 52.235-137.406 207.134zM662.562 796.478c35.737 43.358 59.861 103.513 53.28 163.522-51.479-2.096-113.879-34.29-150.809-77.55-33.143-38.377-62.149-99.625-54.375-158.437 57.465-4.485 116.128 29.205 151.904 72.464z" />
<glyph unicode="&#x6c;" glyph-name="android" d="M864 640c-35.2 0-64-28.8-64-64v-256c0-35.2 28.8-64 64-64s64 28.8 64 64v256c0 35.2-28.8 64-64 64zM96 640c-35.2 0-64-28.8-64-64v-256c0-35.2 28.8-64 64-64s64 28.8 64 64v256c0 35.2-28.802 64-64 64zM192 224c0-53.019 42.981-96 96-96h32v-128c0-35.2 28.8-64 64-64s64 28.8 64 64v128h64v-128c0-35.2 28.802-64 64-64s64 28.8 64 64v128h32c53.019 0 96 42.981 96 96v352h-576v-352zM598.599 870.505l40.503 77.806c2.032 3.902 0.501 8.759-3.401 10.791s-8.759 0.501-10.791-3.401l-41.118-78.985c-32.199 12.446-67.193 19.285-103.792 19.285-36.597 0-71.593-6.839-103.797-19.287l-41.115 78.985c-2.032 3.902-6.887 5.433-10.791 3.401s-5.433-6.887-3.401-10.791l40.501-77.808c-90.631-41.017-156.24-127.584-167.621-230.505h572.441c-11.376 102.926-76.987 189.49-167.618 230.51zM352 689.6c-25.625 0-46.4 20.775-46.4 46.4s20.775 46.4 46.4 46.4 46.4-20.775 46.4-46.4c-0.002-25.625-20.775-46.4-46.4-46.4zM608 689.6c-25.625 0-46.402 20.775-46.402 46.4s20.777 46.4 46.402 46.4 46.398-20.775 46.398-46.4c0-25.625-20.773-46.4-46.398-46.4z" />
<glyph unicode="&#x6d;" glyph-name="windows" d="M412.231 448.087c-47.707 24.519-94.087 36.958-137.879 36.958-5.957 0-11.952-0.181-17.947-0.709-55.881-4.624-106.921-19.367-139.751-30.827-8.709-3.198-17.634-6.576-26.83-10.306l-89.824-311.394c61.703 22.832 116.293 33.938 166.27 33.938 80.846 0 139.527-30.208 187.991-61.305 22.962 77.918 78.043 266.089 94.482 322.325-11.95 7.285-24.075 14.569-36.512 21.321zM528.347 368.93l-90.446-314.149c26.832-15.371 117.097-64.050 186.213-64.050 55.792 0 118.251 14.297 190.834 43.792l86.357 301.975c-58.631-18.921-114.875-28.519-167.465-28.519-95.95 0-163.113 31.099-205.493 60.951zM292.823 591.209c77.118-0.798 134.151-30.208 181.417-60.503l92.752 317.344c-19.545 11.195-70.807 39.095-107.858 48.599-24.386 5.685-50.021 8.615-77.205 8.615-51.797-0.976-108.389-13.945-172.889-39.799l-88.439-310.597c64.809 24.437 120.645 36.341 172.087 36.341 0.043 0 0.135 0 0.135 0zM1024 761.877c-58.814-22.832-116.208-34.466-171.029-34.466-91.687 0-159.291 31.801-203.095 62.366l-91.947-318.235c61.746-39.707 128.29-59.879 198.121-59.879 56.949 0 115.941 13.68 175.463 40.688l-0.183 2.222 3.735 0.887 88.935 306.418z" />
<glyph unicode="&#x6e;" glyph-name="windows8" d="M0.35 448l-0.35 312.073 384 52.144v-364.217zM448 821.518l511.872 74.482v-448h-511.872zM959.998 384l-0.126-448-511.872 72.016v375.984zM384 16.165l-383.687 52.594-0.021 315.241h383.707z" />
<glyph unicode="&#x6f;" glyph-name="skype2" d="M975.31 382.062c2.811 20.8 4.43 41.945 4.43 63.472 0 258.311-210.542 467.744-470.206 467.744-25.808 0-51.111-2.119-75.733-6.16-44.144 28.768-96.683 45.534-153.223 45.534-155.047 0-280.578-125.616-280.578-280.61 0-56.395 16.599-108.789 45.179-152.777-3.849-24.034-5.817-48.647-5.817-73.719 0-258.352 210.434-467.765 470.169-467.765 29.314 0 57.854 2.855 85.593 7.865 43.099-26.738 93.867-42.297 148.293-42.297 155.003 0 280.583 125.648 280.583 280.629-0.007 58.585-17.92 113.056-48.69 158.085zM553.481 100.807c-149.41-7.783-219.328 25.273-283.378 85.383-71.529 67.134-42.795 143.707 15.479 147.602 58.245 3.888 93.214-66.025 124.299-85.472 31.047-19.376 149.189-63.52 211.589 7.815 67.952 77.657-45.189 117.84-128.119 130.005-118.407 17.531-267.899 81.584-256.27 207.815 11.632 126.149 107.163 190.827 207.701 199.952 128.153 11.634 211.582-19.415 277.57-75.719 76.299-65.058 35.015-137.787-13.598-143.639-48.425-5.817-102.809 107.008-209.582 108.704-110.055 1.728-184.434-114.521-48.571-147.568 135.931-33.010 281.499-46.571 333.922-170.834 52.457-124.277-81.509-256.251-231.042-264.043z" />
<glyph unicode="&#x70;" glyph-name="linkedin" d="M852 960h-680c-94.599 0-172-77.401-172-172v-680c0-94.599 77.401-172 172-172h680c94.599 0 172 77.401 172 172v680c0 94.599-77.401 172-172 172zM384 128h-128v448h128v-448zM320 640c-35.346 0-64 28.654-64 64s28.654 64 64 64 64-28.654 64-64-28.654-64-64-64zM832 128h-128v256c0 35.346-28.654 64-64 64s-64-28.654-64-64v-256h-128v448h128v-79.472c26.398 36.263 66.752 79.472 112 79.472 79.529 0 144-71.634 144-160v-288z" />
<glyph unicode="&#x71;" glyph-name="paypal" d="M880.633 829.225c25.698-12.576 48.094-30.487 64.503-52.482 34.537-46.299 44.235-109.371 28.837-187.465-15.561-79.026-50.416-145.735-101.166-194.043-9.282-9.703-19.223-18.745-29.803-27.081-54.357-42.802-122.999-65.429-198.507-65.429l-240.062 0.002-64.565-302.727h-132.425l10.087 46.299h46.128l64.565 302.727h188.27c180.249 0 330.937 111.079 371.257 299.936 45.723 213.833-107.598 311.038-239.408 311.038h-449.28l-199.063-913.701h152.032l-24.032-110.299h263.659l64.565 302.727h188.27c180.249 0 330.937 111.079 371.257 299.936 33.717 157.68-40.802 251.931-135.118 290.562zM422.343 773.918h129.131c64.592 0 107.602-55.538 88.786-124.955-16.135-69.44-83.385-124.976-150.64-124.976h-123.758l56.48 249.931z" />
<glyph unicode="&#x72;" glyph-name="file-pdf" d="M842.011 370.519c-13.648 13.447-43.913 20.567-89.973 21.173-31.177 0.343-68.702-2.402-108.169-7.929-17.673 10.199-35.893 21.294-50.187 34.658-38.462 35.915-70.567 85.771-90.576 140.594 1.305 5.12 2.414 9.621 3.447 14.213 0 0 21.666 123.061 15.929 164.665-0.791 5.705-1.273 7.362-2.807 11.797l-1.881 4.834c-5.895 13.593-17.447 27.993-35.566 27.207l-10.917 0.345c-20.201 0-36.665-10.331-40.985-25.774-13.138-48.434 0.418-120.891 24.983-214.738l-6.288-15.287c-17.589-42.875-39.63-86.059-59.079-124.158l-2.528-4.953c-20.459-40.039-39.024-74.025-55.854-102.823l-17.376-9.189c-1.264-0.667-31.045-16.418-38.027-20.645-59.257-35.383-98.521-75.541-105.035-107.417-2.073-10.169-0.53-23.186 10.014-29.214l16.807-8.457c7.289-3.653 14.978-5.502 22.855-5.502 42.203 0 91.2 52.571 158.697 170.366 77.929 25.367 166.654 46.457 244.414 58.089 59.257-33.369 132.142-56.546 178.142-56.546 8.167 0 15.211 0.777 20.933 2.295 8.823 2.336 16.258 7.367 20.793 14.192 8.926 13.433 10.734 31.931 8.311 50.875-0.727 5.632-5.216 12.583-10.075 17.328zM211.646 145.952c7.696 21.042 38.16 62.645 83.205 99.557 2.832 2.295 9.808 8.832 16.194 14.903-47.102-75.125-78.647-105.067-99.399-114.459zM478.434 760.313c13.566 0 21.285-34.194 21.925-66.254s-6.857-54.56-16.158-71.209c-7.703 24.649-11.426 63.499-11.426 88.903 0 0.002-0.567 48.56 5.659 48.56zM398.853 322.505c9.449 16.917 19.282 34.757 29.33 53.678 24.491 46.315 39.959 82.555 51.479 112.345 22.91-41.685 51.445-77.12 84.985-105.513 4.185-3.543 8.617-7.102 13.273-10.649-68.21-13.495-127.163-29.909-179.067-49.861zM828.903 326.347c-4.153-2.599-16.055-4.101-23.707-4.101-24.706 0-55.271 11.294-98.126 29.666 16.469 1.218 31.561 1.838 45.099 1.838 24.782 0 32.119 0.107 56.35-6.071s24.539-18.734 20.384-21.333zM903.433 760.569l-142.864 142.862c-31.113 31.113-92.569 56.569-136.569 56.569h-480c-44 0-80-36-80-80v-864c0-44 36-80 80-80h736c44 0 80 36 80 80v608c0 44-25.456 105.458-56.567 136.569zM858.178 715.314c3.129-3.129 6.249-6.974 9.28-11.314h-163.458v163.456c4.341-3.031 8.183-6.151 11.314-9.28l142.864-142.862zM896 16c0-8.672-7.328-16-16-16h-736c-8.672 0-16 7.328-16 16v864c0 8.672 7.328 16 16 16h480c4.832 0 10.254-0.61 16-1.703v-254.297h254.295c1.095-5.746 1.703-11.166 1.703-16l0.002-608z" />
<glyph unicode="&#x73;" glyph-name="file-word" d="M639.778 484.107h44.213l-51.013-226.178-66.327 318.011h-106.549l-77.115-318.011-57.815 318.011h-111.394l113.093-511.883h108.837l76.295 302.709 68.256-302.709h100.336l129.63 511.883h-170.446zM903.433 760.569l-142.864 142.862c-31.113 31.113-92.569 56.569-136.569 56.569h-480c-44 0-80-36-80-80v-864c0-44 36-80 80-80h736c44 0 80 36 80 80v608c0 44-25.456 105.458-56.567 136.569zM858.178 715.314c3.129-3.129 6.249-6.974 9.28-11.314h-163.458v163.456c4.341-3.031 8.183-6.151 11.314-9.28l142.864-142.862zM896 16c0-8.672-7.328-16-16-16h-736c-8.672 0-16 7.328-16 16v864c0 8.672 7.328 16 16 16h480c4.832 0 10.254-0.61 16-1.703v-254.297h254.295c1.095-5.746 1.703-11.166 1.703-16l0.002-608z" />
<glyph unicode="&#x74;" glyph-name="file-excel" d="M743.029 576h-135.294l-95.733-141.033-95.739 141.033h-135.289l162.162-242.464-182.974-269.536h262.24v91.577h-60.555l50.155 74.992 111.397-166.569h140.441l-182.976 269.536zM903.433 760.569l-142.864 142.862c-31.113 31.113-92.569 56.569-136.569 56.569h-480c-44 0-80-36-80-80v-864c0-44 36-80 80-80h736c44 0 80 36 80 80v608c0 44-25.456 105.458-56.567 136.569zM858.178 715.314c3.129-3.129 6.249-6.974 9.28-11.314h-163.458v163.456c4.341-3.031 8.183-6.151 11.314-9.28l142.864-142.862zM896 16c0-8.672-7.328-16-16-16h-736c-8.672 0-16 7.328-16 16v864c0 8.672 7.328 16 16 16h480c4.832 0 10.254-0.61 16-1.703v-254.297h254.295c1.095-5.746 1.703-11.166 1.703-16l0.002-608z" />
<glyph unicode="&#x75;" glyph-name="file-powerpoint" d="M192 448h192v-64h-192v64zM192 320h192v-64h-192v64zM192 192h192v-64h-192v64zM903.433 760.569l-142.864 142.862c-31.113 31.113-92.569 56.569-136.569 56.569h-480c-44 0-80-36-80-80v-864c0-44 36-80 80-80h736c44 0 80 36 80 80v608c0 44-25.456 105.458-56.567 136.569zM858.178 715.314c3.129-3.129 6.249-6.974 9.28-11.314h-163.458v163.456c4.341-3.031 8.183-6.151 11.314-9.28l142.864-142.862zM896 16c0-8.672-7.328-16-16-16h-736c-8.672 0-16 7.328-16 16v864c0 8.672 7.328 16 16 16h480c4.832 0 10.254-0.61 16-1.703v-254.297h254.295c1.095-5.746 1.703-11.166 1.703-16l0.002-608zM576 256h188.791c-14.825-73.033-79.385-128-156.791-128-88.366 0-160 71.634-160 160 0 77.406 54.969 141.966 128 156.793v-188.793zM672 512c88.366 0 160-71.634 160-160 0-10.958-1.109-21.659-3.209-32h-188.791v188.791c10.341 2.101 21.042 3.209 32 3.209z" />
<glyph unicode="&#x76;" glyph-name="file-zip" d="M416 832h96v-64h-96zM320 768h96v-64h-96zM416 704h96v-64h-96zM320 640h96v-64h-96zM416 576h96v-64h-96zM320 512h96v-64h-96zM416 448v-64h-96v-224c0-17.673 14.327-32 32-32h128c17.673 0 32 14.327 32 32v288h-96zM480 192h-128v64h128v-64zM903.433 760.569l-142.864 142.862c-31.113 31.113-92.569 56.569-136.569 56.569h-480c-44 0-80-36-80-80v-864c0-44 36-80 80-80h736c44 0 80 36 80 80v608c0 44-25.456 105.458-56.567 136.569zM858.178 715.314c3.129-3.129 6.249-6.974 9.28-11.314h-163.458v163.456c4.341-3.031 8.183-6.151 11.314-9.28l142.864-142.862zM896 16c0-8.672-7.328-16-16-16h-736c-8.672 0-16 7.328-16 16v864c0 8.672 7.328 16 16 16h480c4.832 0 10.254-0.61 16-1.703v-254.297h254.295c1.095-5.746 1.703-11.166 1.703-16l0.002-608z" />
<glyph unicode="&#x77;" glyph-name="file-xml" d="M448 384l-64 64-192-192 192-192 64 64-128 128zM576 128l64-64 192 192-192 192-64-64 128-128zM903.433 760.569l-142.864 142.862c-31.113 31.113-92.569 56.569-136.569 56.569h-480c-44 0-80-36-80-80v-864c0-44 36-80 80-80h736c44 0 80 36 80 80v608c0 44-25.456 105.458-56.567 136.569zM858.178 715.314c3.129-3.129 6.249-6.974 9.28-11.314h-163.458v163.456c4.341-3.031 8.183-6.151 11.314-9.28l142.864-142.862zM896 16c0-8.672-7.328-16-16-16h-736c-8.672 0-16 7.328-16 16v864c0 8.672 7.328 16 16 16h480c4.832 0 10.254-0.61 16-1.703v-254.297h254.295c1.095-5.746 1.703-11.166 1.703-16l0.002-608z" />
<glyph unicode="&#x78;" glyph-name="file-css" d="M384 348.553v114.226c0 15.129 6.695 29.435 18.855 40.286 12.16 10.848 28.192 16.825 45.145 16.825v57.111c-70.4 0-128-51.401-128-114.222v-85.666c0-15.771-14.327-28.558-32-28.558h-32v-57.111h32c17.673 0 32-12.791 32-28.558v-85.675c0-62.814 57.6-114.215 128-114.215v57.111c-16.953 0-32.987 5.977-45.145 16.825-12.158 10.853-18.855 25.154-18.855 40.279v114.233c0 15.769-14.327 28.553-32 28.553 17.673 0.002 32 12.793 32 28.555zM640 291.447v-114.233c0-15.125-6.695-29.426-18.855-40.279-12.158-10.85-28.19-16.825-45.145-16.825v-57.111c70.402 0 128 51.401 128 114.215v85.675c0 15.771 14.327 28.558 32 28.558h32v57.111h-32c-17.673 0-32 12.791-32 28.558v85.664c0 62.823-57.598 114.222-128 114.222v-57.111c16.958 0 32.987-5.977 45.145-16.83 12.16-10.848 18.855-25.157 18.855-40.283v-114.229c0-15.767 14.327-28.553 32-28.553-17.671 0.005-32-12.786-32-28.549zM903.433 760.569l-142.864 142.862c-31.113 31.113-92.569 56.569-136.569 56.569h-480c-44 0-80-36-80-80v-864c0-44 36-80 80-80h736c44 0 80 36 80 80v608c0 44-25.456 105.458-56.567 136.569zM858.178 715.314c3.129-3.129 6.249-6.974 9.28-11.314h-163.458v163.456c4.341-3.031 8.183-6.151 11.314-9.28l142.864-142.862zM896 16c0-8.672-7.328-16-16-16h-736c-8.672 0-16 7.328-16 16v864c0 8.672 7.328 16 16 16h480c4.832 0 10.254-0.61 16-1.703v-254.297h254.295c1.095-5.746 1.703-11.166 1.703-16l0.002-608z" />
<glyph unicode="&#x79;" glyph-name="file-openoffice" d="M690.219 488.318c-60.667 28.651-137.973 34.421-194.834-6.048 69.141 6.603 144.958-4.839 195.106-57.125 48 55.081 124.114 65.406 192.958 59.733-57.488 38.144-133.218 33.024-193.23 3.44zM665.648 354.249c-68.377 1.577-134.434-23.173-191.099-60.105-107.175 45.589-242.736 37.125-334.002-38.983 26.329 0.935 52.007 7.447 78.055 10.791 95.182 9.488 196.587-14.142 268.512-79.824 29.771 43.543 71.643 78.242 119.653 99.922 63.074 30.519 134.16 33.685 202.821 34.521-41.689 28.651-94.617 33.957-143.938 33.678zM903.433 760.569l-142.864 142.862c-31.113 31.113-92.569 56.569-136.569 56.569h-480c-44 0-80-36-80-80v-864c0-44 36-80 80-80h736c44 0 80 36 80 80v608c0 44-25.456 105.458-56.567 136.569zM858.178 715.314c3.129-3.129 6.249-6.974 9.28-11.314h-163.458v163.456c4.341-3.031 8.183-6.151 11.314-9.28l142.864-142.862zM896 16c0-8.672-7.328-16-16-16h-736c-8.672 0-16 7.328-16 16v864c0 8.672 7.328 16 16 16h480c4.832 0 10.254-0.61 16-1.703v-254.297h254.295c1.095-5.746 1.703-11.166 1.703-16l0.002-608z" />
<glyph unicode="&#x7a;" glyph-name="html5" d="M60.537 960l82.144-921.63 368.757-102.37 369.723 102.523 82.302 921.477h-902.926zM784.631 658.571h-432.542l10.302-115.751 411.97 0.002-31.042-347.010-231.845-64.254-231.573 64.254-15.831 177.513h113.495l8.048-90.233 125.863-33.915 0.279 0.078 125.934 33.991 13.070 146.551h-391.742l-30.494 341.799h566.215l-10.107-113.024z" />
<glyph unicode="&#x7b;" glyph-name="html52" d="M60.537 960l82.144-921.63 368.757-102.37 369.723 102.523 82.302 921.477h-902.926zM810.761 97.175l-297.225-82.375v-0.466l-0.777 0.233-0.782-0.233v0.466l-297.223 82.377-70.24 787.486h736.496l-70.249-787.488zM650.754 429.797l-13.070-146.553-126.21-34.069-125.863 33.915-8.050 90.233h-113.49l15.831-177.511 232.075-64.176 231.344 64.176 31.040 347.013h-411.968l-10.302 115.746h432.535l10.112 113.026h-566.217l30.496-341.801z" />
<glyph unicode="&#x7c;" glyph-name="css3" d="M152.389 911.479l-34.361-171.927h699.749l-21.883-111.054h-700.19l-33.89-171.897h699.682l-39.017-196.066-282.011-93.422-244.4 93.422 16.727 85.042h-171.897l-40.896-206.352 404.226-154.704 466.005 154.704 153.769 772.254z" />
<glyph unicode="&#x7d;" glyph-name="chrome" d="M258.279 513.458l-146.533 253.801c93.817 117.465 238.233 192.741 400.254 192.741 187.433 0 351.31-100.736 440.533-251.001h-417.771c-7.504 0.651-15.090 1.001-22.761 1.001-121.874 0-224.578-83.643-253.721-196.542zM695.305 634.999h293.461c22.741-57.929 35.234-121.003 35.234-186.999 0-280.825-226.101-508.805-506.185-511.927l209.394 362.679c29.479 42.377 46.791 93.826 46.791 149.248 0 73.17-30.165 139.419-78.695 186.999zM326 448c0 102.56 83.44 186 186 186s186-83.44 186-186c0-102.56-83.44-186-186-186s-186 83.44-186 186zM582.183 195.559l-146.578-253.879c-246.533 36.885-435.605 249.515-435.605 506.32 0 91.218 23.883 176.846 65.696 251.024l209.031-362.055c41.867-89.111 132.475-150.969 237.273-150.969 24.299 0 47.835 3.339 70.183 9.559z" />
<glyph unicode="&#x7e;" glyph-name="firefox" d="M1022.526 625.861l-11.861-76.080c0 0-16.953 140.855-37.733 193.513-31.847 80.688-46.014 80.041-46.107 79.922 21.33-54.203 17.463-83.323 17.463-83.323s-37.792 102.999-137.712 135.767c-110.686 36.281-170.569 26.363-177.488 24.487-1.049 0.009-2.064 0.009-3.031 0.009 0.818-0.062 1.611-0.146 2.425-0.213-0.034-0.021-0.089-0.041-0.082-0.053 0.45-0.549 122.306-21.303 143.915-50.997 0 0-51.76 0-103.271-14.841-2.327-0.665 189.525-23.963 228.745-215.673 0 0-21.031 43.877-47.040 51.328 17.106-52.037 12.713-150.777-3.577-199.849-2.096-6.313-4.24 27.282-36.329 41.751 10.279-73.646-0.617-190.457-51.707-222.631-3.982-2.503 32.030 115.31 7.241 69.762-142.709-218.802-311.403-100.971-387.248-49.111 38.866-8.462 112.654 1.319 145.314 25.611 0.041 0.030 0.078 0.057 0.119 0.087 35.467 24.251 56.473 41.963 75.335 37.771 18.873-4.215 31.438 14.727 16.779 31.529-14.677 16.839-50.313 39.977-98.523 27.367-34-8.905-76.135-46.521-140.448-8.432-49.365 29.25-54.011 53.545-54.45 70.377 1.218 5.966 2.754 11.536 4.576 16.624 5.682 15.87 22.912 20.658 32.494 24.439 16.256-2.791 30.263-7.863 44.969-15.406 0.19 4.894 0.251 11.39-0.018 18.761 1.41 2.802 0.537 11.253-1.721 21.579-1.303 10.309-3.419 20.974-6.752 30.693 0.011 0.002 0.021 0.009 0.030 0.014 0.057 0.018 0.107 0.041 0.155 0.071 0.078 0.043 0.146 0.112 0.208 0.19 0.011 0.021 0.030 0.034 0.043 0.053 0.082 0.123 0.153 0.272 0.199 0.466 1.019 4.617 12.023 13.525 25.719 23.099 12.272 8.581 26.702 17.696 38.069 24.752 10.059 6.249 17.719 10.882 19.346 12.098 0.617 0.466 1.358 1.013 2.165 1.637 0.151 0.117 0.299 0.233 0.455 0.354 0.094 0.073 0.19 0.149 0.286 0.226 5.41 4.309 13.483 12.448 15.177 29.577 0.005 0.041 0.009 0.080 0.011 0.121 0.050 0.505 0.091 1.015 0.13 1.534 0.027 0.361 0.050 0.727 0.073 1.097 0.014 0.283 0.032 0.567 0.043 0.855 0.030 0.674 0.050 1.365 0.059 2.064 0 0.041 0.002 0.075 0.005 0.117 0.023 1.657-0.007 3.385-0.103 5.202-0.055 1.015-0.126 1.929-0.297 2.761-0.009 0.043-0.018 0.091-0.027 0.137-0.018 0.082-0.037 0.165-0.057 0.245-0.037 0.146-0.075 0.293-0.121 0.43-0.007 0.018-0.009 0.032-0.016 0.046-0.053 0.16-0.112 0.313-0.174 0.464-0.005 0.007-0.005 0.009-0.007 0.016-1.753 4.107-8.32 5.657-35.442 6.119-0.025 0.002-0.050 0.002-0.075 0.002v0c-11.065 0.187-25.538 0.194-44.503 0.119-33.25-0.135-51.627 32.503-57.495 45.131 8.039 44.459 31.275 76.142 69.449 97.625 0.722 0.407 0.581 0.743-0.274 0.978 7.465 4.514-90.247 0.123-135.186-57.035-39.888 9.913-74.654 9.246-104.617 2.215-5.753 0.162-12.923 0.88-21.433 2.651-19.925 18.057-48.448 51.401-49.975 91.209 0 0-0.091-0.073-0.251-0.203-0.021 0.382-0.057 0.761-0.073 1.143 0 0-60.715-46.665-51.627-173.881-0.023-2.037-0.064-3.986-0.119-5.874-16.432-22.288-24.585-41.019-25.191-45.157-14.565-29.655-29.337-74.265-41.36-141.991 0 0 8.407 26.665 25.285 56.866-12.411-38.023-22.165-97.157-16.437-185.856 0 0 1.513 19.666 6.873 47.993 4.185-55.010 22.519-122.923 68.857-202.789 88.949-153.321 225.671-230.741 376.791-242.617 26.837-2.213 54.050-2.263 81.424-0.185 2.517 0.178 5.033 0.363 7.55 0.574 30.965 2.174 62.135 6.853 93.239 14.366 425.175 102.8 378.944 616.201 378.944 616.201z" />
<glyph unicode="&#xe000;" glyph-name="IE" d="M734.201 331.17h236.050c1.819 16.37 2.549 33.097 2.549 50.197 0 80.224-21.534 155.467-59.125 220.265 38.88 103.307 37.493 190.987-14.555 243.39-49.497 49.28-182.29 41.28-332.411-25.198-11.104 0.839-22.318 1.271-33.639 1.271-206.048 0-378.926-141.794-426.709-332.85 64.64 82.754 132.64 142.754 223.479 186.45-8.261-7.739-56.455-55.653-64.56-63.765-239.547-239.479-315.090-552.306-233.806-633.605 61.785-61.774 173.758-51.342 302.375 11.648 59.806-30.457 127.499-47.63 199.218-47.63 193.134 0 356.805 124.315 416.089 297.447h-237.867c-32.734-60.382-96.747-101.481-170.217-101.481-73.467 0-137.483 41.097-170.217 101.481-14.551 27.273-22.914 58.553-22.914 91.657v0.722h386.261zM348.302 447.195c5.456 97.111 86.199 174.583 184.766 174.583s179.312-77.472 184.766-174.583h-369.531zM896.967 796.192c33.527-33.881 32.688-96.215 4.011-174.023-49.136 74.907-120.519 133.936-204.793 167.641 90.107 38.638 163.408 43.755 200.782 6.382zM93.481-7.255c-42.782 42.795-29.883 132.617 25.23 240.832 34.309-96.27 101.157-177.090 187.337-229.154-95.431-43.319-173.536-50.674-212.567-11.678z" />
<glyph unicode="&#xe001;" glyph-name="opera" d="M510.046 960c-279.723 0-480.747-202.896-480.747-507.223 0-270.818 195.502-516.777 480.784-516.777 288.078 0 484.619 245.886 484.619 516.775 0 306.761-207.447 507.225-484.656 507.225zM688.359 461.458c-0.069-169.351-9.097-410.482-178.277-410.482v-0.034c-166.784 0-173.431 241.266-173.431 410.309 0 198.379 18.56 388.567 173.431 388.567 154.873 0 178.277-192.583 178.277-388.359z" />
<glyph unicode="&#xe002;" glyph-name="safari" d="M512 896c-24.064 0-47.707-1.792-70.823-5.211-0.299 0.782-0.624 1.547-0.983 2.295 12.825 10.002 19.55 23.831 16.633 37.552-3.733 17.563-22.393 29.365-46.434 29.365-5.179 0-10.457-0.562-15.68-1.671-30.167-6.414-50.146-28.622-45.481-50.562 2.834-13.337 14.293-23.337 30.165-27.383-0.032-0.971-0.016-1.95 0.041-2.935-200.622-57.531-347.438-242.338-347.438-461.449 0-265.097 214.903-480 480-480s480 214.903 480 480c0 265.097-214.903 480-480 480zM364.882 911.093c-2.706 12.727 12.48 27.191 33.159 31.584 4.13 0.878 8.288 1.323 12.352 1.323 16.037 0 28.695-6.864 30.784-16.69 1.595-7.511-3.070-15.609-11.385-21.904-7.033 4.967-16.016 7.127-25.099 5.195-9.045-1.922-16.347-7.509-20.759-14.857-10.183 2.453-17.509 8.087-19.051 15.349zM769.385 158.615c-43.968-43.968-97.209-75.278-155.31-92.153l-42.395 68.768-10.745-79.959c-16.091-2.153-32.427-3.271-48.935-3.271-97.227 0-188.635 37.865-257.385 106.615-43.968 43.966-75.278 97.209-92.153 155.307l68.768 42.398-79.959 10.745c-2.153 16.091-3.271 32.427-3.271 48.935 0 97.227 37.863 188.635 106.615 257.385 43.968 43.968 97.211 75.278 155.31 92.155l42.395-68.77 10.747 79.959c16.089 2.153 32.425 3.271 48.933 3.271 97.227 0 188.635-37.863 257.385-106.615 43.968-43.968 75.278-97.211 92.153-155.31l-68.77-42.398 79.959-10.745c2.155-16.089 3.273-32.425 3.273-48.933 0-97.227-37.865-188.635-106.615-257.385zM760.903 664.903l-196.978-149.705c-14.645 7.657-30.875 12.062-47.415 12.727l-51.081 107.179-3.067-118.665c-13.285-6.535-25.104-15.664-34.875-26.951l-63.088 22.363 46.091-48.537c-6.334-13.518-9.865-28.030-10.434-42.823l-107.159-51.065 118.738-3.067c0.379-0.768 0.775-1.527 1.17-2.281l-149.705-196.981 196.978 149.705c14.645-7.655 30.873-12.059 47.415-12.725l51.081-107.182 3.065 118.665c13.287 6.537 25.106 15.664 34.878 26.953l63.090-22.368-46.094 48.539c6.336 13.52 9.867 28.030 10.437 42.823l107.157 51.065-118.736 3.070c-0.377 0.766-0.775 1.525-1.17 2.279l149.703 196.981zM512.103 515.465v0zM492.041 509.902c6.727 1.431 13.445 2.119 20.055 2.119 4.144 0 8.249-0.27 12.295-0.795l0.091-0.032-0.009 0.023c8.731-1.143 17.175-3.499 25.131-6.896l-71.545-54.377-54.379-71.552c-2.375 5.593-4.27 11.483-5.579 17.653-11.026 51.858 22.080 102.834 73.941 113.858zM562.121 334.117v0 0c-9.056-5.543-19.182-9.685-30.16-12.018-6.727-1.431-13.445-2.119-20.055-2.119-4.151 0-8.258 0.272-12.309 0.798l-0.078 0.030 0.009-0.021c-8.734 1.143-17.175 3.499-25.131 6.894l71.543 54.377 54.379 71.554c2.375-5.593 4.27-11.486 5.579-17.655 8.693-40.88-10.053-81.198-43.778-101.84z" />
<glyph unicode="&#xe003;" glyph-name="newspaper" d="M896 704v128h-896v-704c0-35.346 28.654-64 64-64h864c53.022 0 96 42.978 96 96v544h-128zM832 128h-768v640h768v-640zM128 640h640v-64h-640zM512 512h256v-64h-256zM512 384h256v-64h-256zM512 256h192v-64h-192zM128 512h320v-320h-320z" />
<glyph unicode="&#xe004;" glyph-name="books" d="M576.233 670.729l242.713 81.433 203.584-606.784-242.713-81.433zM0 64h256v704h-256v-704zM64 640h128v-64h-128v64zM320 64h256v704h-256v-704zM384 640h128v-64h-128v64z" />
<glyph unicode="&#xe005;" glyph-name="credit" d="M928 832h-832c-52.8 0-96-43.2-96-96v-576c0-52.8 43.2-96 96-96h832c52.8 0 96 43.2 96 96v576c0 52.8-43.2 96-96 96zM96 768h832c17.346 0 32-14.654 32-32v-96h-896v96c0 17.346 14.654 32 32 32zM928 128h-832c-17.346 0-32 14.654-32 32v288h896v-288c0-17.346-14.654-32-32-32zM128 320h64v-128h-64zM256 320h64v-128h-64zM384 320h64v-128h-64z" />
<glyph unicode="&#xe006;" glyph-name="calendar3" d="M896 832h-96v-32c0-35.289-28.711-64-64-64s-64 28.711-64 64v32h-320v-32c0-35.289-28.711-64-64-64s-64 28.711-64 64v32h-96c-35.2 0-64-28.8-64-64v-704c0-35.2 28.8-64 64-64h768c35.2 0 64 28.8 64 64v704c0 35.2-28.8 64-64 64zM896 64.117c-0.034-0.041-0.075-0.082-0.117-0.117h-767.769c-0.041 0.034-0.082 0.075-0.114 0.117v575.883h768v-575.883zM288 768c17.673 0 32 14.327 32 32v128c0 17.673-14.327 32-32 32s-32-14.327-32-32v-128c0-17.671 14.327-32 32-32zM736 768c17.673 0 32 14.327 32 32v128c0 17.673-14.327 32-32 32s-32-14.327-32-32v-128c0-17.671 14.329-32 32-32zM576 576h-320v-64h256v-128h-256v-64h256v-128h-256v-64h320zM704 128h64v448h-128v-64h64zM872-24h-720c-35.2 0-64 20.8-64 56v-32c0-35.2 28.8-64 64-64h720c35.2 0 64 28.8 64 64v32c0-35.2-28.8-56-64-56z" />
<glyph unicode="&#xe007;" glyph-name="shield2" d="M960 960l-448-128-448 128c0 0-4.501-51.698 0-128l448-140.089 448 140.089c4.498 76.302 0 128 0 128zM72.19 764.894c23.986-250.695 113.49-672.233 439.81-828.894 326.32 156.661 415.824 578.199 439.81 828.894l-439.81-165.358-439.81 165.358z" />
<glyph unicode="&#xe008;" glyph-name="pushpin" d="M544 960l-96-96 96-96-224-256h-224l176-176-272-360.615v-39.385h39.383l360.617 272 176-176v224l256 224 96-96 96 96-480 480zM448 416l-64 64 224 224 64-64-224-224z" />
<glyph unicode="&#xe009;" glyph-name="pencil-ring" d="M512 960c282.768 0 512-229.23 512-512 0-282.768-229.232-512-512-512-282.77 0-512 229.232-512 512 0 282.77 229.23 512 512 512zM511.36 908.8c-254.139 0-460.16-206.021-460.16-460.16 0-254.142 206.021-460.16 460.16-460.16 254.142 0 460.16 206.018 460.16 460.16 0 254.139-206.018 460.16-460.16 460.16zM659.456 710.144c32.768 32.768 65.536 16.384 98.304-16.384s49.152-65.536 16.384-98.304l-17.086-17.086-114.688 114.688 17.086 17.086zM397.312 218.624l-155.877-63.467c-2.359-1.317-5.079-2.069-7.973-2.069-9.045 0-16.375 7.326-16.375 16.363 0 2.873 0.741 5.57 2.039 7.918l63.497 155.943 291.518 291.518 114.688-114.688-291.518-291.518zM623.294 673.982l114.688-114.688-30.075-30.075-114.688 114.688 30.075 30.075zM315.392 333.312l-49.152-114.688 16.384-16.384 114.688 49.152-81.92 81.92z" />
<glyph unicode="&#xe00a;" glyph-name="pencil2" d="M756.169 871.191c51.024 51.026 102.050 25.513 153.072-25.511 51.024-51.026 76.539-102.050 25.513-153.077l-26.603-26.606-178.59 178.585 26.608 26.608zM347.966 105.817l-242.725-98.834c-3.675-2.046-7.909-3.218-12.416-3.218-14.082 0-25.497 11.406-25.497 25.481 0 4.471 1.154 8.672 3.177 12.329l98.873 242.825 453.943 453.945 178.59-178.587-453.945-453.941zM699.858 814.882l178.59-178.587-46.839-46.834-178.59 178.587 46.839 46.834zM220.405 284.4l-76.539-178.583 25.513-25.515 178.587 76.539-127.561 127.559z" />
<glyph unicode="&#xe00b;" glyph-name="flipvertical-ring" d="M512 960c282.768 0 512-229.23 512-512 0-282.768-229.232-512-512-512-282.77 0-512 229.232-512 512 0 282.77 229.23 512 512 512zM511.36 908.8c-254.139 0-460.16-206.021-460.16-460.16 0-254.142 206.021-460.16 460.16-460.16 254.142 0 460.16 206.018 460.16 460.16 0 254.139-206.018 460.16-460.16 460.16zM207.529 481.792v16.384c0 4.523 5.497 8.192 12.274 8.192h216.345v-32.768h-216.345c-6.777 0-12.274 3.669-12.274 8.192zM784.4 506.368c6.777 0 12.272-3.669 12.272-8.192v-16.384c0-4.523-5.495-8.192-12.272-8.192h-216.873v32.768h216.873zM551.131 358.912h81.701l-131.072-163.84-131.072 163.84h81.874v262.144h-81.874l131.072 147.456 131.072-147.456h-81.701v-262.144z" />
<glyph unicode="&#xe00c;" glyph-name="flipvertical" d="M57.483 451.84v25.417c0 7.019 8.523 12.709 19.040 12.709h335.623v-50.834h-335.623c-10.517 0-19.040 5.689-19.040 12.709zM952.402 489.966c10.517 0 19.042-5.689 19.042-12.711v-25.415c0-7.019-8.526-12.709-19.042-12.709h-336.446v50.834h336.446zM590.519 261.211h126.754l-203.337-254.171-203.339 254.171h127.013v406.674h-127.013l203.339 228.754 203.337-228.754h-126.754v-406.674z" />
<glyph unicode="&#xe00d;" glyph-name="filter-ring" d="M512 960c282.768 0 512-229.23 512-512 0-282.768-229.232-512-512-512-282.77 0-512 229.232-512 512 0 282.77 229.23 512 512 512zM511.36 908.8c-254.139 0-460.16-206.021-460.16-460.16 0-254.142 206.021-460.16 460.16-460.16 254.142 0 460.16 206.018 460.16 460.16 0 254.139-206.018 460.16-460.16 460.16zM468.992 375.296v-196.608h65.536v196.608l245.76 327.68h-573.44l262.144-327.68z" />
<glyph unicode="&#xe00e;" glyph-name="filter2" d="M475.065 329.525v-310.318h103.44v310.318l387.895 517.195h-905.093l413.758-517.195z" />
<glyph unicode="&#xe00f;" glyph-name="diskette-ring" d="M512 960c282.768 0 512-229.23 512-512 0-282.768-229.232-512-512-512-282.77 0-512 229.232-512 512 0 282.77 229.23 512 512 512zM511.36 908.8c-254.139 0-460.16-206.021-460.16-460.16 0-254.142 206.021-460.16 460.16-460.16 254.142 0 460.16 206.018 460.16 460.16 0 254.139-206.018 460.16-460.16 460.16zM288.768 719.36h376.832l81.92-81.92v-376.832c0-16.384-16.384-32.768-32.768-32.768h-425.984c-16.384 0-32.768 16.384-32.768 32.768v425.984c0 16.384 16.384 32.768 32.768 32.768zM632.832 686.592h-262.144v-131.072c0-16.384 16.384-32.768 32.768-32.768h196.608c16.384 0 32.768 16.384 32.768 32.768v131.072zM534.528 670.208h65.536v-131.072h-65.536v131.072zM354.304 260.608h294.912v147.456c0 16.384-16.384 32.768-32.768 32.768h-229.376c-16.384 0-32.768-16.384-32.768-32.768v-147.456z" />
<glyph unicode="&#xe010;" glyph-name="diskette" d="M125.097 901.12h687.92l149.543-149.545v-687.92c0-29.904-29.911-59.815-59.815-59.815h-777.648c-29.909 0-59.817 29.911-59.817 59.815v777.648c0 29.906 29.909 59.817 59.817 59.817zM753.193 841.301h-478.549v-239.275c0-29.909 29.909-59.817 59.819-59.817h358.912c29.911 0 59.817 29.909 59.817 59.817v239.275zM573.737 811.392h119.639v-239.275h-119.639v239.275zM244.736 63.655h538.368v269.186c0 29.911-29.911 59.824-59.817 59.824h-418.734c-29.909 0-59.817-29.913-59.817-59.824v-269.186z" />
<glyph unicode="&#xe011;" glyph-name="calendar2-ring" d="M512 960c282.768 0 512-229.23 512-512 0-282.768-229.232-512-512-512-282.77 0-512 229.232-512 512 0 282.77 229.23 512 512 512zM511.36 908.8c-254.139 0-460.16-206.021-460.16-460.16 0-254.142 206.021-460.16 460.16-460.16 254.142 0 460.16 206.018 460.16 460.16 0 254.139-206.018 460.16-460.16 460.16zM217.088 193.874v414.741c0 20.215 16.505 36.603 36.864 36.603h94.208v-33.378c0-24.402 8.192-32.768 32.768-32.768h16.384c24.576 0 32.768 19.291 32.768 32.768v33.378h163.84v-33.378c0-13.477 8.192-32.768 32.768-32.768h16.384c24.576 0 32.768 19.291 32.768 32.768v33.378h94.208c20.359 0 36.864-16.389 36.864-36.603v-414.741c0-12.203-12.288-24.402-24.576-24.402h-540.672c-12.288 0-24.576 12.199-24.576 24.402zM774.144 529.92h-524.288v-311.296c0-13.477 2.809-16.384 16.384-16.384h491.52c13.575 0 16.384 2.907 16.384 16.384v311.296zM380.928 742.912h16.384c13.573 0 16.384-2.907 16.384-16.384v-114.688c0-13.477-2.811-16.384-16.384-16.384h-16.384c-13.575 0-16.384 2.907-16.384 16.384v114.688c0 13.477 2.809 16.384 16.384 16.384zM626.688 742.912h16.384c13.575 0 16.384-2.907 16.384-16.384v-114.688c0-13.477-2.809-16.384-16.384-16.384h-16.384c-13.575 0-16.384 2.907-16.384 16.384v114.688c0 13.477 2.809 16.384 16.384 16.384zM446.464 448l65.536 32.768h49.152v-229.376l-65.536-0.098v166.882l-49.152-19.328v49.152z" />
<glyph unicode="&#xe012;" glyph-name="calendar22" d="M60.027 49.854v640.626c0 31.225 25.495 56.537 56.942 56.537h145.518v-51.557c0-37.694 12.656-50.615 50.615-50.615h25.307c37.963 0 50.615 29.799 50.615 50.615v51.557h253.077v-51.557c0-20.816 12.649-50.615 50.615-50.615h25.307c37.961 0 50.61 29.799 50.61 50.615v51.557h145.522c31.447 0 56.942-25.312 56.942-56.537v-640.626c0-18.848-18.981-37.694-37.961-37.694h-835.145c-18.983 0-37.963 18.846-37.963 37.694zM920.478 568.921h-809.835v-480.837c0-20.818 4.341-25.31 25.307-25.31h759.221c20.965 0 25.307 4.491 25.307 25.31v480.837zM313.102 897.92h25.307c20.967 0 25.31-4.489 25.31-25.307v-177.152c0-20.816-4.343-25.307-25.31-25.307h-25.307c-20.965 0-25.305 4.491-25.305 25.307v177.152c0 20.818 4.341 25.307 25.305 25.307zM692.715 897.92h25.307c20.96 0 25.303-4.489 25.303-25.307v-177.152c0-20.816-4.343-25.307-25.303-25.307h-25.307c-20.965 0-25.307 4.491-25.307 25.307v177.152c0 20.818 4.343 25.307 25.307 25.307zM414.331 442.389l101.232 50.613h75.918v-354.304l-101.227-0.149v257.765l-75.922-29.849v75.925z" />
<glyph unicode="&#xe013;" glyph-name="arrowright2-ring" d="M512 960c282.768 0 512-229.23 512-512 0-282.768-229.232-512-512-512-282.77 0-512 229.232-512 512 0 282.77 229.23 512 512 512zM511.36 908.8c-254.139 0-460.16-206.021-460.16-460.16 0-254.142 206.021-460.16 460.16-460.16 254.142 0 460.16 206.018 460.16 460.16 0 254.139-206.018 460.16-460.16 460.16zM362.24 298.88l72.96 174.080-71.68 168.96 357.12-171.52-358.4-171.52z" />
<glyph unicode="&#xe014;" glyph-name="arrowright2" d="M224 177.865l118.299 282.258-116.224 273.957 579.045-278.107-581.12-278.107z" />
<glyph unicode="&#xe015;" glyph-name="arrowleft2-ring" d="M512 960c282.768 0 512-229.23 512-512 0-282.768-229.232-512-512-512-282.77 0-512 229.232-512 512 0 282.77 229.23 512 512 512zM511.36 908.8c-254.139 0-460.16-206.021-460.16-460.16 0-254.142 206.021-460.16 460.16-460.16 254.142 0 460.16 206.018 460.16 460.16 0 254.139-206.018 460.16-460.16 460.16zM648.96 641.92l-72.96-174.080 71.68-168.96-357.12 171.52 358.4 171.52z" />
<glyph unicode="&#xe016;" glyph-name="arrowleft2" d="M805.12 734.080l-118.297-282.258 116.224-273.957-579.047 278.107 581.12 278.107z" />
<glyph unicode="&#xe017;" glyph-name="meter" d="M512 896c282.77 0 512-229.23 512-512 0-192.791-106.576-360.665-264.009-448h-495.984c-157.431 87.335-264.007 255.209-264.007 448 0 282.77 229.23 512 512 512zM801.913 94.087c77.438 77.44 120.087 180.398 120.087 289.913h-90v64h85.038c-7.015 44.999-21.39 88.146-42.565 128h-106.473v64h64.283c-9.438 11.762-19.552 23.097-30.37 33.913-46.222 46.222-101.538 80.039-161.913 99.799v-69.712h-64v85.040c-20.983 3.269-42.359 4.96-64 4.96s-43.017-1.689-64-4.96v-85.040h-64v69.712c-60.373-19.76-115.691-53.577-161.913-99.799-10.818-10.816-20.933-22.151-30.37-33.913h64.283v-64h-106.475c-21.175-39.854-35.552-83.001-42.565-128h85.040v-64h-90c0-109.515 42.647-212.473 120.087-289.913 10.709-10.711 21.922-20.729 33.559-30.087h192.354l36.571 512h54.857l36.571-512h192.354c11.637 9.358 22.853 19.378 33.559 30.087z" />
<glyph unicode="&#xe018;" glyph-name="stats" d="M128 64h896v-128h-1024v1024h128zM288 128c-53.019 0-96 42.981-96 96s42.981 96 96 96c2.827 0 5.623-0.149 8.389-0.386l103.191 171.986c-9.84 15.070-15.579 33.063-15.579 52.402 0 53.019 42.981 96 96 96s96-42.981 96-96c0-19.342-5.739-37.333-15.579-52.402l103.191-171.986c2.766 0.238 5.561 0.386 8.389 0.386 2.135 0 4.249-0.094 6.35-0.231l170.357 298.123c-10.537 15.408-16.706 34.037-16.706 54.11 0 53.019 42.981 96 96 96s96-42.981 96-96c0-53.019-42.981-96-96-96-2.139 0-4.249 0.094-6.35 0.231l-170.357-298.123c10.537-15.406 16.706-34.037 16.706-54.11 0-53.019-42.981-96-96-96s-96 42.981-96 96c0 19.339 5.739 37.333 15.577 52.402l-103.189 171.984c-2.766-0.238-5.561-0.386-8.389-0.386s-5.623 0.146-8.389 0.386l-103.191-171.986c9.84-15.067 15.579-33.061 15.579-52.4 0-53.019-42.981-96-96-96z" />
<glyph unicode="&#xe019;" glyph-name="bars2" d="M0 128h1024v-128h-1024zM128 384h128v-192h-128zM320 640h128v-448h-128zM512 448h128v-256h-128zM704 832h128v-640h-128z" />
<glyph unicode="&#xe01a;" glyph-name="pie" d="M448 384v448c-247.424 0-448-200.576-448-448s200.576-448 448-448 448 200.576 448 448c0 72.034-17.029 140.085-47.237 200.382l-400.763-200.382zM912.763 712.382c-73.552 146.816-225.374 247.618-400.763 247.618v-448l400.763 200.382z" />
<glyph unicode="&#xe01b;" glyph-name="curved-arrow" d="M896 384c0 247.36-200.64 448-448 448s-448-200.64-448-448c0 176.736 143.264 320 320 320s320-143.264 320-320v-64h-128l256-256 256 256h-128v64z" />
<glyph unicode="&#xe01c;" glyph-name="close2" d="M1014.663 137.339c-0.005 0.005-0.009 0.009-0.011 0.009l-310.645 310.651 310.645 310.649c0.005 0.005 0.009 0.007 0.011 0.009 3.344 3.346 5.762 7.255 7.312 11.417 4.247 11.376 1.824 24.681-7.323 33.831l-146.747 146.745c-9.147 9.145-22.45 11.566-33.829 7.321-4.16-1.55-8.071-3.968-11.417-7.31 0-0.005-0.005-0.007-0.009-0.009l-310.647-310.654-310.649 310.649c-0.005 0.005-0.007 0.007-0.009 0.009-3.346 3.342-7.255 5.76-11.415 7.31-11.381 4.249-24.681 1.826-33.831-7.321l-146.747-146.745c-9.147-9.147-11.568-22.453-7.321-33.829 1.552-4.16 3.97-8.071 7.312-11.417 0.005-0.002 0.007-0.007 0.009-0.009l310.651-310.647-310.651-310.651c-0.002-0.005-0.007-0.007-0.009-0.009-3.342-3.346-5.76-7.255-7.314-11.415-4.249-11.376-1.826-24.681 7.321-33.831l146.747-146.745c9.15-9.147 22.453-11.568 33.831-7.321 4.16 1.552 8.071 3.97 11.417 7.312 0.002 0.005 0.007 0.007 0.009 0.009l310.649 310.649 310.649-310.649c0.005-0.002 0.009-0.007 0.011-0.009 3.349-3.344 7.255-5.762 11.415-7.314 11.378-4.247 24.683-1.826 33.829 7.321l146.745 146.747c9.147 9.147 11.57 22.455 7.323 33.831-1.552 4.162-3.968 8.069-7.312 11.415z" />
<glyph unicode="&#xe01d;" glyph-name="exit" d="M768 320v128h-320v128h320v128l192-192zM704 384v-256h-320v-192l-384 192v832h704v-320h-64v256h-512l256-128v-576h256v192z" />
<glyph unicode="&#xe01e;" glyph-name="chevron-up2" horiz-adv-x="951" d="M920.571 265.143q0-30.286-21.143-51.429l-42.857-42.857q-21.714-21.714-52-21.714-30.857 0-51.429 21.714l-277.714 277.143-277.714-277.143q-20.571-21.714-51.429-21.714t-51.429 21.714l-42.857 42.857q-21.714 20.571-21.714 51.429 0 30.286 21.714 52l372 372q21.143 21.143 51.429 21.143 29.714 0 52-21.143l371.429-372q21.714-21.714 21.714-52z" />
<glyph unicode="&#xe01f;" glyph-name="chevron-down2" horiz-adv-x="951" d="M920.571 557.714q0-30.286-21.143-51.429l-372-372q-21.714-21.714-52-21.714-30.857 0-51.429 21.714l-372 372q-21.714 20.571-21.714 51.429 0 30.286 21.714 52l42.286 42.857q22.286 21.143 52 21.143 30.286 0 51.429-21.143l277.714-277.714 277.714 277.714q21.143 21.143 51.429 21.143 29.714 0 52-21.143l42.857-42.857q21.143-22.286 21.143-52z" />
<glyph unicode="&#xe020;" glyph-name="refresh2" horiz-adv-x="878" d="M863.429 356.571q0-2.857-0.571-4-36.571-153.143-153.143-248.286t-273.143-95.143q-83.429 0-161.429 31.429t-139.143 89.714l-73.714-73.714q-10.857-10.857-25.714-10.857t-25.714 10.857-10.857 25.714v256q0 14.857 10.857 25.714t25.714 10.857h256q14.857 0 25.714-10.857t10.857-25.714-10.857-25.714l-78.286-78.286q40.571-37.714 92-58.286t106.857-20.571q76.571 0 142.857 37.143t106.286 102.286q6.286 9.714 30.286 66.857 4.571 13.143 17.143 13.143h109.714q7.429 0 12.857-5.429t5.429-12.857zM877.714 813.714v-256q0-14.857-10.857-25.714t-25.714-10.857h-256q-14.857 0-25.714 10.857t-10.857 25.714 10.857 25.714l78.857 78.857q-84.571 78.286-199.429 78.286-76.571 0-142.857-37.143t-106.286-102.286q-6.286-9.714-30.286-66.857-4.571-13.143-17.143-13.143h-113.714q-7.429 0-12.857 5.429t-5.429 12.857v4q37.143 153.143 154.286 248.286t274.286 95.143q83.429 0 162.286-31.714t140-89.429l74.286 73.714q10.857 10.857 25.714 10.857t25.714-10.857 10.857-25.714z" />
<glyph unicode="&#xe021;" glyph-name="arrow-up2" horiz-adv-x="951" d="M920.571 405.143q0-29.143-21.143-51.429l-42.857-42.857q-21.714-21.714-52-21.714-30.857 0-51.429 21.714l-168 167.429v-402.286q0-29.714-21.429-48.286t-51.714-18.571h-73.143q-30.286 0-51.714 18.571t-21.429 48.286v402.286l-168-167.429q-20.571-21.714-51.429-21.714t-51.429 21.714l-42.857 42.857q-21.714 21.714-21.714 51.429 0 30.286 21.714 52l372 372q20 21.143 51.429 21.143 30.857 0 52-21.143l372-372q21.143-22.286 21.143-52z" />
<glyph unicode="&#xe022;" glyph-name="arrow-down2" horiz-adv-x="951" d="M920.571 484.571q0-30.286-21.143-51.429l-372-372.571q-22.286-21.143-52-21.143-30.286 0-51.429 21.143l-372 372.571q-21.714 20.571-21.714 51.429 0 30.286 21.714 52l42.286 42.857q22.286 21.143 52 21.143 30.286 0 51.429-21.143l168-168v402.286q0 29.714 21.714 51.429t51.429 21.714h73.143q29.714 0 51.429-21.714t21.714-51.429v-402.286l168 168q21.143 21.143 51.429 21.143 29.714 0 52-21.143l42.857-42.857q21.143-22.286 21.143-52z" />
<glyph unicode="&#xe023;" glyph-name="link" d="M953.397 885.358l-4.027 4.041c-94.149 94.135-248.194 94.135-342.327 0l-218.107-218.135c-94.135-94.133-94.135-248.176 0-342.311l4.025-4.025c7.831-7.847 16.146-14.923 24.736-21.458l79.849 79.849c-9.303 5.495-18.126 12.071-26.117 20.059l-4.041 4.041c-51.113 51.097-51.113 134.272 0 185.39l218.128 218.114c51.115 51.118 134.274 51.118 185.385 0l4.041-4.023c51.099-51.115 51.099-134.293 0-185.39l-98.686-98.686c17.131-42.309 25.248-87.401 24.537-132.386l152.603 152.603c94.137 94.135 94.137 248.178 0 342.315zM631.042 571.065c-7.831 7.831-16.146 14.921-24.736 21.44l-79.849-79.831c9.305-5.497 18.126-12.073 26.117-20.062l4.041-4.041c51.115-51.115 51.115-134.272 0-185.387l-218.128-218.135c-51.118-51.102-134.277-51.102-185.387 0l-4.041 4.041c-51.097 51.12-51.097 134.277 0 185.387l98.688 98.686c-17.134 42.306-25.246 87.401-24.537 132.386l-152.601-152.599c-94.135-94.133-94.135-248.178 0-342.325l4.025-4.032c94.151-94.128 248.192-94.128 342.327 0l218.11 218.119c94.135 94.133 94.135 248.194 0 342.327l-4.027 4.025z" />
<glyph unicode="&#xe024;" glyph-name="resize-full" horiz-adv-x="878" d="M431.429 356.571q0-7.429-5.714-13.143l-189.714-189.714 82.286-82.286q10.857-10.857 10.857-25.714t-10.857-25.714-25.714-10.857h-256q-14.857 0-25.714 10.857t-10.857 25.714v256q0 14.857 10.857 25.714t25.714 10.857 25.714-10.857l82.286-82.286 189.714 189.714q5.714 5.714 13.143 5.714t13.143-5.714l65.143-65.143q5.714-5.714 5.714-13.143zM877.714 850.286v-256q0-14.857-10.857-25.714t-25.714-10.857-25.714 10.857l-82.286 82.286-189.714-189.714q-5.714-5.714-13.143-5.714t-13.143 5.714l-65.143 65.143q-5.714 5.714-5.714 13.143t5.714 13.143l189.714 189.714-82.286 82.286q-10.857 10.857-10.857 25.714t10.857 25.714 25.714 10.857h256q14.857 0 25.714-10.857t10.857-25.714z" />
<glyph unicode="&#xe025;" glyph-name="resize-small" horiz-adv-x="878" d="M438.857 411.429v-256q0-14.857-10.857-25.714t-25.714-10.857-25.714 10.857l-82.286 82.286-189.714-189.714q-5.714-5.714-13.143-5.714t-13.143 5.714l-65.143 65.143q-5.714 5.714-5.714 13.143t5.714 13.143l189.714 189.714-82.286 82.286q-10.857 10.857-10.857 25.714t10.857 25.714 25.714 10.857h256q14.857 0 25.714-10.857t10.857-25.714zM870.286 795.429q0-7.429-5.714-13.143l-189.714-189.714 82.286-82.286q10.857-10.857 10.857-25.714t-10.857-25.714-25.714-10.857h-256q-14.857 0-25.714 10.857t-10.857 25.714v256q0 14.857 10.857 25.714t25.714 10.857 25.714-10.857l82.286-82.286 189.714 189.714q5.714 5.714 13.143 5.714t13.143-5.714l65.143-65.143q5.714-5.714 5.714-13.143z" />
<glyph unicode="&#xe026;" glyph-name="edit2" d="M507.429 283.429l66.286 66.286-86.857 86.857-66.286-66.286v-32h54.857v-54.857h32zM758.857 694.857q-9.143 9.143-18.857-0.571l-200-200q-9.714-9.714-0.571-18.857t18.857 0.571l200 200q9.714 9.714 0.571 18.857zM804.571 355.429v-108.571q0-68-48.286-116.286t-116.286-48.286h-475.429q-68 0-116.286 48.286t-48.286 116.286v475.429q0 68 48.286 116.286t116.286 48.286h475.429q36 0 66.857-14.286 8.571-4 10.286-13.143 1.714-9.714-5.143-16.571l-28-28q-8-8-18.286-4.571-13.143 3.429-25.714 3.429h-475.429q-37.714 0-64.571-26.857t-26.857-64.571v-475.429q0-37.714 26.857-64.571t64.571-26.857h475.429q37.714 0 64.571 26.857t26.857 64.571v72q0 7.429 5.143 12.571l36.571 36.571q8.571 8.571 20 4t11.429-16.571zM749.714 777.143l164.571-164.571-384-384h-164.571v164.571zM1003.429 701.714l-52.571-52.571-164.571 164.571 52.571 52.571q16 16 38.857 16t38.857-16l86.857-86.857q16-16 16-38.857t-16-38.857z" />
<glyph unicode="&#xe027;" glyph-name="sort2" horiz-adv-x="585" d="M585.143 338.286q0-14.857-10.857-25.714l-256-256q-10.857-10.857-25.714-10.857t-25.714 10.857l-256 256q-10.857 10.857-10.857 25.714t10.857 25.714 25.714 10.857h512q14.857 0 25.714-10.857t10.857-25.714zM585.143 557.714q0-14.857-10.857-25.714t-25.714-10.857h-512q-14.857 0-25.714 10.857t-10.857 25.714 10.857 25.714l256 256q10.857 10.857 25.714 10.857t25.714-10.857l256-256q10.857-10.857 10.857-25.714z" />
<glyph unicode="&#xe028;" glyph-name="ok" d="M954.857 636.571q0-22.857-16-38.857l-491.429-491.429q-16-16-38.857-16t-38.857 16l-284.571 284.571q-16 16-16 38.857t16 38.857l77.714 77.714q16 16 38.857 16t38.857-16l168-168.571 374.857 375.429q16 16 38.857 16t38.857-16l77.714-77.714q16-16 16-38.857z" />
<glyph unicode="&#xe029;" glyph-name="ban-circle" horiz-adv-x="878" d="M731.429 448q0 79.429-40.571 148.571l-400.571-400.571q69.143-40.571 148.571-40.571 59.429 0 113.429 23.143t93.429 62.571 62.571 93.429 23.143 113.429zM186.857 299.429l400.571 400.571q-69.143 40.571-148.571 40.571-59.429 0-113.429-23.143t-93.429-62.571-62.571-93.429-23.143-113.429q0-79.429 40.571-148.571zM877.714 448q0-119.429-58.857-220.286t-159.714-159.714-220.286-58.857-220.286 58.857-159.714 159.714-58.857 220.286 58.857 220.286 159.714 159.714 220.286 58.857 220.286-58.857 159.714-159.714 58.857-220.286z" />
<glyph unicode="&#xe02a;" glyph-name="upload" d="M448 384h128v256h192l-256 256-256-256h192zM640 528v-98.711l293.065-109.289-421.065-157.017-421.065 157.017 293.065 109.289v98.711l-384-144v-256l512-192 512 192v256z" />
<glyph unicode="&#xe02b;" glyph-name="spinner" horiz-adv-x="896" d="M283.429 192q0-34.286-24.286-58.286t-58-24q-34.286 0-58.286 24t-24 58.286 24 58.286 58.286 24q33.714 0 58-24t24.286-58.286zM530.286 82.286q0-30.286-21.429-51.714t-51.714-21.429-51.714 21.429-21.429 51.714 21.429 51.714 51.714 21.429 51.714-21.429 21.429-51.714zM182.857 448q0-37.714-26.857-64.571t-64.571-26.857-64.571 26.857-26.857 64.571 26.857 64.571 64.571 26.857 64.571-26.857 26.857-64.571zM777.143 192q0-26.286-18.857-45.143t-45.143-18.857-45.143 18.857-18.857 45.143 18.857 45.143 45.143 18.857 45.143-18.857 18.857-45.143zM301.714 704q0-41.714-29.429-71.143t-71.143-29.429-71.143 29.429-29.429 71.143 29.429 71.143 71.143 29.429 71.143-29.429 29.429-71.143zM566.857 813.714q0-45.714-32-77.714t-77.714-32-77.714 32-32 77.714 32 77.714 77.714 32 77.714-32 32-77.714zM877.714 448q0-22.857-16-38.857t-38.857-16-38.857 16-16 38.857 16 38.857 38.857 16 38.857-16 16-38.857zM758.857 704q0-18.857-13.429-32.286t-32.286-13.429-32.286 13.429-13.429 32.286 13.429 32.286 32.286 13.429 32.286-13.429 13.429-32.286z" />
<glyph unicode="&#xe02c;" glyph-name="lock2" d="M832 512h-64v192c0 141.383-114.615 256-256 256-141.383 0-256-114.617-256-256v-192h-64c-35.2 0-64-28.8-64-64v-448c0-35.2 28.8-64 64-64h640c35.2 0 64 28.8 64 64v448c0 35.2-28.8 64-64 64zM512 128c-35.346 0-64 28.654-64 64s28.654 64 64 64 64-28.654 64-64-28.654-64-64-64zM640 512h-256v192c0 70.581 57.419 128 128 128s128-57.419 128-128v-192z" />
<glyph unicode="&#xe02d;" glyph-name="unlocked" d="M768 896h-128c-105.87 0-192-86.13-192-192v-192h-400c-26.4 0-48-21.6-48-48v-480c0-26.4 21.6-48 48-48h544c26.4 0 48 21.6 48 48v480c0 26.4-21.6 48-48 48h-16v192c0 35.289 28.711 64 64 64h128c35.289 0 64-28.711 64-64v-192h128v192c0 105.87-86.13 192-192 192zM384 64h-128l27.84 139.2c-16.809 11.531-27.84 30.873-27.84 52.8 0 35.346 28.654 64 64 64s64-28.654 64-64c0-21.927-11.033-41.269-27.84-52.8l27.84-139.2z" />
<glyph unicode="&#xe600;" glyph-name="outline_email" d="M20.48 775.68v-655.36h983.040v655.36h-983.040zM512 349.696l-421.888 385.024h839.68l-417.792-385.024zM512 300.544l106.496 98.304 311.296-233.472h-835.584l311.296 233.472 106.496-98.304zM962.56 185.856l-311.296 237.568 311.296 282.624v-520.192zM376.832 423.424l-315.392-237.568v520.192l315.392-282.624z" />
</font>
</defs>
</svg>
